<?xml version="1.0" encoding="utf-8"?>
<svg id="master-artboard" viewBox="0 0 773.6466674804688 650.664306640625" version="1.1" xmlns="http://www.w3.org/2000/svg" x="0px" y="0px" style="enable-background:new 0 0 1400 980;" width="773.6466674804688px" height="650.664306640625px"><defs><path id="text-path-0" d="M 367.578125 397.7903137207031 A 100 54 0 0 1 591.65625 397.7903137207031 A 100 54 0 0 1 367.578125 397.7903137207031 Z" style="fill: none; stroke: red; stroke-width: 2;"/><path id="text-path-1" d="M 322.90625 896.790283203125 A 100 -100 0 0 0 546.984375 896.790283203125 A 100 -100 0 0 0 322.90625 896.790283203125 Z" style="fill: none; stroke: red; stroke-width: 2;"/><path id="text-path-2" d="M 622.46875 671.790283203125 A 100 -100 0 0 0 846.546875 671.790283203125 A 100 -100 0 0 0 622.46875 671.790283203125" style="fill: none; stroke: red; stroke-width: 2;"/><radialGradient id="gradient-0" gradientUnits="objectBoundingBox" cx="0.5" cy="0.5" r="0.5">
                <stop offset="0" style="stop-color: #333333"/>
                <stop offset="1" style="stop-color: #000000"/>
              </radialGradient><radialGradient id="gradient-5" gradientUnits="objectBoundingBox" cx="0.5033130645751953" cy="0.4892803728580475" r="0.5">
                <stop offset="0" style="stop-color: #333333"/>
                <stop offset="1" style="stop-color: #000000"/>
              </radialGradient><linearGradient id="gradient-6" gradientUnits="userSpaceOnUse" x1="955.4500122070312" y1="666.199951171875" x2="955.4500122070312" y2="933.8331909179688">
                <stop offset="0" style="stop-color: #782622"/>
                <stop offset="1" style="stop-color: #290d0b"/>
              </linearGradient><linearGradient id="gradient-7" gradientUnits="userSpaceOnUse" x1="801.0999450683594" y1="666.199951171875" x2="801.0999450683594" y2="933.8331909179688">
                <stop offset="0" style="stop-color: #782622"/>
                <stop offset="1" style="stop-color: #290d0b"/>
              </linearGradient><linearGradient id="gradient-8" gradientUnits="userSpaceOnUse" x1="1189.1499633789062" y1="697" x2="1189.1499633789062" y2="908.9002075195312" gradientTransform="matrix(1, 0, 0, 0.6599627913460931, 0, 309.05988950989786)">
                <stop offset="0" style="stop-color: #84141d"/>
                <stop offset="1" style="stop-color: #2b070a"/>
              </linearGradient><linearGradient id="gradient-9" gradientUnits="userSpaceOnUse" x1="955.4500122070312" y1="666.199951171875" x2="955.4500122070312" y2="933.8331909179688" gradientTransform="matrix(0.9999865447422668, -0.005204448080151374, 0.006431841251676491, 1.2358318986759798, -4.2720365016469275, -152.1386094009971)">
                <stop offset="0" style="stop-color: #981e22"/>
                <stop offset="1" style="stop-color: #430d0f"/>
              </linearGradient><linearGradient id="gradient-10" gradientUnits="userSpaceOnUse" x1="801.0999450683594" y1="666.199951171875" x2="801.0999450683594" y2="933.8331909179688" gradientTransform="matrix(0.999986316687051, -0.005249831068098884, 0.006431841251676491, 1.2251123913117348, -4.273930626142712, -145.76422455957734)">
                <stop offset="0" style="stop-color: #981e22"/>
                <stop offset="1" style="stop-color: #430d0f"/>
              </linearGradient><style id="ee-google-fonts">@import url(https://fonts.googleapis.com/css?family=Alegreya+SC:400,400italic,700,700italic,900,900italic);</style></defs><rect id="ee-background" x="0" y="0" width="773.6466674804688" height="650.664306640625" style="fill: white; fill-opacity: 1; pointer-events: none;"/>


<g transform="matrix(2.289822578430176, 0, 0, 2.289822578430176, -1629.1480712890625, -1503.9540939331055)"><g transform="matrix(1, 0, 0, 1, 0, 0)">
		<linearGradient id="gradient-3" gradientUnits="userSpaceOnUse" x1="841.8355" y1="905.6852" x2="1021.7513" y2="725.7694">
			<stop offset="0" style="stop-color:#C8A84C"/>
			<stop offset="1.957078e-02" style="stop-color:#CCAB4D"/>
			<stop offset="0.129" style="stop-color:#DEBA53"/>
			<stop offset="0.1963" style="stop-color:#E7C157"/>
			<stop offset="0.2266" style="stop-color:#E1BC55"/>
			<stop offset="0.3959" style="stop-color:#CEAD4E"/>
			<stop offset="0.5" style="stop-color:#C8A84C"/>
			<stop offset="0.7" style="stop-color:#E7C157"/>
			<stop offset="0.8028" style="stop-color:#DEBA53"/>
			<stop offset="0.9701" style="stop-color:#CCAB4D"/>
			<stop offset="1" style="stop-color:#C8A84C"/>
		</linearGradient>
		<path class="st16" d="M1000.3,848.1c1.9-4.3,3.6-8.6,4.9-13.1c0.9-3.1,1.7-6.2,2.4-9.4c7.2-13.2,15-17.7,24.8-23.3&#10;&#9;&#9;&#9;c-5.3,7.6-10.2,8.9-14,13.8c10.5-4.7,18.5-4.5,23.7-26.3c0,0-5.3,4-13,8.4c-8.9,5.1-16.4,14.7-20.9,24.1&#10;&#9;&#9;&#9;c1.3-7.8,1.8-15.7,1.4-23.6c3.5-15.1,10-21.5,18.1-29.6c-3.1,8.7-7.5,11.2-10,17c9-7.3,16.7-9.1,16.1-31.6c0,0-4,5.2-10.4,11.5&#10;&#9;&#9;&#9;c-7.5,7.4-12.3,19-14.1,29.4c-0.1-1.6-0.3-3.3-0.5-4.9c-0.8-6.2-2.2-12.3-4.1-18.3c-0.7-16,3.9-23.9,9.8-34&#10;&#9;&#9;&#9;c-0.8,9.3-4.4,12.8-5.2,19c6.8-9.3,13.8-13.1,7.4-34.7c0,0-2.5,6.1-7,13.8c-5.5,9.3-7.1,22.2-5.9,32.8c-2.5-7.2-5.9-14.1-9.9-20.6&#10;&#9;&#9;&#9;c-0.1-0.2-0.2-0.4-0.4-0.6c-5.2-15.8-2.7-24.7,0.4-36.2c1.7,9.1-0.9,13.5-0.1,19.7c4.1-10.8,9.9-16.2-1.9-35.4&#10;&#9;&#9;&#9;c0,0-0.9,6.5-3.2,15.1c-3,10.8-1,24.1,3.2,34.2c-4.4-6.5-9.5-12.6-15.3-18c-9.6-14.4-9.6-23.8-9.6-35.9c4,8.4,2.6,13.3,5,19&#10;&#9;&#9;&#9;c1.2-11.5,5.4-18.3-11-33.7c0,0,0.8,6.5,0.8,15.4c-0.1,11.6,5.7,24.4,12.7,33.1c-3.6-3.2-7.5-6.2-11.5-8.9c-2.6-1.7-5.2-3.3-8-4.8&#10;&#9;&#9;&#9;c-13.6-11.7-16-20.9-19.2-32.7c6,7.1,5.9,12.1,9.7,17.1c-1.8-11.4,0.5-19-19.3-29.7c0,0,2.5,6.1,4.7,14.7&#10;&#9;&#9;&#9;c3,11.6,12.5,22.9,21.8,29.4c-9.7-5.1-20.3-8.6-31.1-10.4c11,2,21.7,5.8,31.5,11.1c-8.9-3.5-20.9-1.9-30.2,3.2&#10;&#9;&#9;&#9;c-6.7,3.7-12.1,4.1-12.1,4.1c18.3,7.6,21.1,1.3,29.9-3.8c-5.5,0.2-8.9,3-17.1,2.9c9-1,16.4-10.2,31.3-5.4c2.6,1.5,5.2,3.1,7.7,4.8&#10;&#9;&#9;&#9;c4.1,2.8,7.9,5.9,11.5,9.3c-7.7-4.9-19-6.3-28.7-3.9c-7.5,1.9-12.8,0.8-12.8,0.8c15.7,12.1,20,6.7,29.8,4.1&#10;&#9;&#9;&#9;c-5.4-1.3-9.4,0.6-17.3-1.7c8.8,1.3,18.1-5.3,30.7,2.3c5.7,5.5,10.8,11.7,15.1,18.3c-6.3-6.3-16.3-10.1-26-10.3&#10;&#9;&#9;&#9;c-7.7-0.1-12.5-2.5-12.5-2.5C964.4,749,970,745,980.1,745c-4.8-2.6-9.2-1.8-16.2-6.1c8,3.5,18.4-0.3,28.4,9.6&#10;&#9;&#9;&#9;c0.1,0.2,0.2,0.3,0.3,0.5c4,6.6,7.2,13.7,9.7,21.1c-4.5-7.4-13-13.4-22-16c-7.4-2.1-11.4-5.7-11.4-5.7c7.6,18.3,14,15.9,23.8,18.5&#10;&#9;&#9;&#9;c-4-3.8-8.5-4.2-14.1-10.1c6.7,5.3,17.4,4.5,24.6,16c1.8,5.8,3,11.8,3.7,17.9c0.2,1.7,0.4,3.5,0.5,5.2c-2.7-8-9.1-15.6-16.8-20.2&#10;&#9;&#9;&#9;c-6.6-4-9.6-8.5-9.6-8.5c2.6,19.7,9.4,18.9,18.2,24c-2.9-4.7-7.1-6.2-11-13.4c5,6.7,15.2,8.8,19.4,21c0.3,7.9-0.3,15.8-1.8,23.5&#10;&#9;&#9;&#9;c-0.7-8.2-4.9-16.9-10.9-23.2c-5.3-5.6-7.1-10.6-7.1-10.6c-2.6,19.7,4.2,20.7,11.4,27.9c-1.6-5.3-5.2-7.8-7.2-15.8&#10;&#9;&#9;&#9;c3,7.7,12.2,12.3,13.2,24.7c-0.7,3-1.5,6-2.4,9c-1.4,4.5-3.2,9-5.2,13.2c1.3-8-0.5-17.2-4.7-24.6c-3.7-6.7-4.1-12.1-4.1-12.1&#10;&#9;&#9;&#9;c-7.6,18.3-1.3,21.1,3.8,29.9c-0.2-5.5-3-8.9-2.9-17.1c0.9,8.1,8.3,14.8,6.5,26.7c-3.6,6.9-7.9,13.5-12.9,19.4&#10;&#9;&#9;&#9;c3-7.3,3.6-16.3,1.6-24.3c-1.9-7.5-0.8-12.8-0.8-12.8c-12.1,15.7-6.7,20-4.1,29.8c1.3-5.4-0.6-9.4,1.7-17.3&#10;&#9;&#9;&#9;c-1.2,7.9,4,16.1-0.4,26.9c0,0-0.1,0.1-0.1,0.1c-5.2,5.7-11,10.9-17.3,15.4c4.6-6.2,7.3-14.5,7.4-22.6c0.1-7.7,2.5-12.5,2.5-12.5&#10;&#9;&#9;&#9;c-15.7,12.1-11.7,17.6-11.7,27.8c2.6-4.8,1.8-9.2,6.1-16.2c-3.1,7.2-0.4,16.3-7,25.4c-4.9,3.2-10,6.1-15.4,8.4&#10;&#9;&#9;&#9;c-1.8,0.8-3.6,1.5-5.4,2.2c5.8-4.8,10.5-12,12.7-19.6c2.1-7.4,5.7-11.4,5.7-11.4c-18.3,7.6-15.9,14-18.5,23.8&#10;&#9;&#9;&#9;c3.8-4,4.2-8.5,10.1-14.1c-4.8,6.1-4.6,15.4-13,22.4c-7.3,2.5-14.9,4.1-22.6,4.9c6.7-3.2,12.8-8.8,16.7-15.4&#10;&#9;&#9;&#9;c4-6.6,8.5-9.6,8.5-9.6c-19.7,2.6-18.9,9.4-24,18.2c4.7-2.9,6.2-7.1,13.4-11c-6.1,4.5-8.4,13.4-17.9,18.1&#10;&#9;&#9;&#9;c-2.7,0.2-5.5,0.3-8.3,0.2c-3.8,0-7.7,0.3-11.6,1.1c-3.8,0.8-7.7,2.2-11.1,4.4c-3.4,2.2-6.4,5.2-8.5,8.8c-2,3.6-3.1,7.7-3.2,11.9&#10;&#9;&#9;&#9;h5c0-3.3,0.8-6.6,2.4-9.5c1.6-2.9,3.9-5.4,6.8-7.2c2.8-1.9,6.1-3.1,9.5-3.9c3.4-0.8,7-1.1,10.6-1.2c2.9,0,5.8-0.1,8.7-0.4&#10;&#9;&#9;&#9;c12.7,3.7,18.7,9.7,26.2,17.2c-8.7-3.1-11.2-7.5-17-10c7.3,9,9.1,16.7,31.6,16.1c0,0-5.2-4-11.5-10.4&#10;&#9;&#9;&#9;c-6.5-6.6-16.3-11.1-25.7-13.3c7.9-0.9,15.7-2.8,23.2-5.4c13.5,0.1,21,4.5,30.2,9.8c-9.3-0.8-12.8-4.4-19-5.2&#10;&#9;&#9;&#9;c9.3,6.8,13.1,13.8,34.7,7.4c0,0-6.1-2.6-13.8-7.1c-8.1-4.8-19-6.6-28.7-6.2c1.7-0.7,3.4-1.4,5.1-2.2c5.5-2.5,10.8-5.5,15.8-8.9&#10;&#9;&#9;&#9;c13.5-3.6,21.9-1.3,32.4,1.5c-9.1,1.7-13.5-0.9-19.7-0.1c10.8,4.1,16.2,9.9,35.4-1.9c0,0-6.5-0.9-15.1-3.3&#10;&#9;&#9;&#9;c-9.3-2.6-20.6-1.4-30,1.7c6.3-4.6,12.2-10,17.3-15.9c0.1-0.1,0.1-0.1,0.2-0.2c12.3-7.3,21.1-7.2,32.1-7.2c-8.4,4-13.3,2.6-19,5&#10;&#9;&#9;&#9;c11.5,1.2,18.3,5.4,33.7-11c0,0-6.5,0.8-15.4,0.8c-9.9-0.1-20.7,4.1-29,9.7c5-6.2,9.3-12.9,12.9-20c10.2-10.5,18.8-12.8,29.6-15.7&#10;&#9;&#9;&#9;c-7.1,6-12.1,5.9-17.1,9.7c11.4-1.8,19,0.5,29.7-19.3c0,0-6.1,2.5-14.7,4.7C1016.4,833.4,1006.9,840.4,1000.3,848.1z" style="fill: url('#gradient-9'); opacity: 1; fill-opacity: 1; stroke: rgb(0, 0, 0);"/>
		
			<linearGradient id="gradient-4" gradientUnits="userSpaceOnUse" x1="1315.3131" y1="905.6852" x2="1495.2289" y2="725.7694" gradientTransform="matrix(-1 0 0 1 2230.0156 0)">
			<stop offset="0" style="stop-color:#C8A84C"/>
			<stop offset="1.957078e-02" style="stop-color:#CCAB4D"/>
			<stop offset="0.129" style="stop-color:#DEBA53"/>
			<stop offset="0.1963" style="stop-color:#E7C157"/>
			<stop offset="0.2266" style="stop-color:#E1BC55"/>
			<stop offset="0.3959" style="stop-color:#CEAD4E"/>
			<stop offset="0.5" style="stop-color:#C8A84C"/>
			<stop offset="0.7" style="stop-color:#E7C157"/>
			<stop offset="0.8028" style="stop-color:#DEBA53"/>
			<stop offset="0.9701" style="stop-color:#CCAB4D"/>
			<stop offset="1" style="stop-color:#C8A84C"/>
		</linearGradient>
		<path class="st17" d="M756.3,848.1c-1.9-4.3-3.6-8.6-4.9-13.1c-0.9-3.1-1.7-6.2-2.4-9.4c-7.2-13.2-15-17.7-24.8-23.3&#10;&#9;&#9;&#9;c5.3,7.6,10.2,8.9,14,13.8c-10.5-4.7-18.5-4.5-23.7-26.3c0,0,5.3,4,13,8.4c8.9,5.1,16.4,14.7,20.9,24.1&#10;&#9;&#9;&#9;c-1.3-7.8-1.8-15.7-1.4-23.6c-3.5-15.1-10-21.5-18.1-29.6c3.1,8.7,7.5,11.2,10,17c-9-7.3-16.7-9.1-16.1-31.6c0,0,4,5.2,10.4,11.5&#10;&#9;&#9;&#9;c7.5,7.4,12.3,19,14.1,29.4c0.1-1.6,0.3-3.3,0.5-4.9c0.8-6.2,2.2-12.3,4.1-18.3c0.7-16-3.9-23.9-9.8-34c0.8,9.3,4.4,12.8,5.2,19&#10;&#9;&#9;&#9;c-6.8-9.3-13.8-13.1-7.4-34.7c0,0,2.5,6.1,7,13.8c5.5,9.3,7.1,22.2,5.9,32.8c2.5-7.2,5.9-14.1,9.9-20.6c0.1-0.2,0.2-0.4,0.4-0.6&#10;&#9;&#9;&#9;c5.2-15.8,2.7-24.7-0.4-36.2c-1.7,9.1,0.9,13.5,0.1,19.7c-4.1-10.8-9.9-16.2,1.9-35.4c0,0,0.9,6.5,3.2,15.1&#10;&#9;&#9;&#9;c3,10.8,1,24.1-3.2,34.2c4.4-6.5,9.5-12.6,15.3-18c9.6-14.4,9.6-23.8,9.6-35.9c-4,8.4-2.6,13.3-5,19c-1.2-11.5-5.4-18.3,11-33.7&#10;&#9;&#9;&#9;c0,0-0.8,6.5-0.8,15.4c0.1,11.6-5.7,24.4-12.7,33.1c3.6-3.2,7.5-6.2,11.5-8.9c2.6-1.7,5.2-3.3,8-4.8c13.6-11.7,16-20.9,19.2-32.7&#10;&#9;&#9;&#9;c-6,7.1-5.9,12.1-9.7,17.1c1.8-11.4-0.5-19,19.3-29.7c0,0-2.5,6.1-4.7,14.7c-3,11.6-12.5,22.9-21.8,29.4&#10;&#9;&#9;&#9;c9.7-5.1,20.3-8.6,31.1-10.4c-11,2-21.7,5.8-31.5,11.1c8.9-3.5,20.9-1.9,30.2,3.2c6.7,3.7,12.1,4.1,12.1,4.1&#10;&#9;&#9;&#9;c-18.3,7.6-21.1,1.3-29.9-3.8c5.5,0.2,8.9,3,17.1,2.9c-9-1-16.4-10.2-31.3-5.4c-2.6,1.5-5.2,3.1-7.7,4.8&#10;&#9;&#9;&#9;c-4.1,2.8-7.9,5.9-11.5,9.3c7.7-4.9,19-6.3,28.7-3.9c7.5,1.9,12.8,0.8,12.8,0.8c-15.7,12.1-20,6.7-29.8,4.1&#10;&#9;&#9;&#9;c5.4-1.3,9.4,0.6,17.3-1.7c-8.8,1.3-18.1-5.3-30.7,2.3c-5.7,5.5-10.8,11.7-15.1,18.3c6.3-6.3,16.3-10.1,26-10.3&#10;&#9;&#9;&#9;c7.7-0.1,12.5-2.5,12.5-2.5C792.1,749,786.6,745,776.4,745c4.8-2.6,9.2-1.8,16.2-6.1c-8,3.5-18.4-0.3-28.4,9.6&#10;&#9;&#9;&#9;c-0.1,0.2-0.2,0.3-0.3,0.5c-4,6.6-7.2,13.7-9.7,21.1c4.5-7.4,13-13.4,22-16c7.4-2.1,11.4-5.7,11.4-5.7&#10;&#9;&#9;&#9;c-7.6,18.3-14,15.9-23.8,18.5c4-3.8,8.5-4.2,14.1-10.1c-6.7,5.3-17.4,4.5-24.6,16c-1.8,5.8-3,11.8-3.7,17.9&#10;&#9;&#9;&#9;c-0.2,1.7-0.4,3.5-0.5,5.2c2.7-8,9.1-15.6,16.8-20.2c6.6-4,9.6-8.5,9.6-8.5c-2.6,19.7-9.4,18.9-18.2,24c2.9-4.7,7.1-6.2,11-13.4&#10;&#9;&#9;&#9;c-5,6.7-15.2,8.8-19.4,21c-0.3,7.9,0.3,15.8,1.8,23.5c0.7-8.2,4.9-16.9,10.9-23.2c5.3-5.6,7.1-10.6,7.1-10.6&#10;&#9;&#9;&#9;c2.6,19.7-4.2,20.7-11.4,27.9c1.6-5.3,5.2-7.8,7.2-15.8c-3,7.7-12.2,12.3-13.2,24.7c0.7,3,1.5,6,2.4,9c1.4,4.5,3.2,9,5.2,13.2&#10;&#9;&#9;&#9;c-1.3-8,0.5-17.2,4.7-24.6c3.7-6.7,4.1-12.1,4.1-12.1c7.6,18.3,1.3,21.1-3.8,29.9c0.2-5.5,3-8.9,2.9-17.1&#10;&#9;&#9;&#9;c-0.9,8.1-8.3,14.8-6.5,26.7c3.6,6.9,7.9,13.5,12.9,19.4c-3-7.3-3.6-16.3-1.6-24.3c1.9-7.5,0.8-12.8,0.8-12.8&#10;&#9;&#9;&#9;c12.1,15.7,6.7,20,4.1,29.8c-1.3-5.4,0.6-9.4-1.7-17.3c1.2,7.9-4,16.1,0.4,26.9c0,0,0.1,0.1,0.1,0.1c5.2,5.7,11,10.9,17.3,15.4&#10;&#9;&#9;&#9;c-4.6-6.2-7.3-14.5-7.4-22.6c-0.1-7.7-2.5-12.5-2.5-12.5c15.7,12.1,11.7,17.6,11.7,27.8c-2.6-4.8-1.8-9.2-6.1-16.2&#10;&#9;&#9;&#9;c3.1,7.2,0.4,16.3,7,25.4c4.9,3.2,10,6.1,15.4,8.4c1.8,0.8,3.6,1.5,5.4,2.2c-5.8-4.8-10.5-12-12.7-19.6&#10;&#9;&#9;&#9;c-2.1-7.4-5.7-11.4-5.7-11.4c18.3,7.6,15.9,14,18.5,23.8c-3.8-4-4.2-8.5-10.1-14.1c4.8,6.1,4.6,15.4,13,22.4&#10;&#9;&#9;&#9;c7.3,2.5,14.9,4.1,22.6,4.9c-6.7-3.2-12.8-8.8-16.7-15.4c-4-6.6-8.5-9.6-8.5-9.6c19.7,2.6,18.9,9.4,24,18.2&#10;&#9;&#9;&#9;c-4.7-2.9-6.2-7.1-13.4-11c6.1,4.5,8.4,13.4,17.9,18.1c2.7,0.2,5.5,0.3,8.3,0.2c3.8,0,7.7,0.3,11.6,1.1c3.8,0.8,7.7,2.2,11.1,4.4&#10;&#9;&#9;&#9;c3.4,2.2,6.4,5.2,8.5,8.8c2,3.6,3.1,7.7,3.2,11.9h-5c0-3.3-0.8-6.6-2.4-9.5c-1.6-2.9-3.9-5.4-6.8-7.2c-2.8-1.9-6.1-3.1-9.5-3.9&#10;&#9;&#9;&#9;c-3.4-0.8-7-1.1-10.6-1.2c-2.9,0-5.8-0.1-8.7-0.4c-12.7,3.7-18.7,9.7-26.2,17.2c8.7-3.1,11.2-7.5,17-10c-7.3,9-9.1,16.7-31.6,16.1&#10;&#9;&#9;&#9;c0,0,5.2-4,11.5-10.4c6.5-6.6,16.3-11.1,25.7-13.3c-7.9-0.9-15.7-2.8-23.2-5.4c-13.5,0.1-21,4.5-30.2,9.8c9.3-0.8,12.8-4.4,19-5.2&#10;&#9;&#9;&#9;c-9.3,6.8-13.1,13.8-34.7,7.4c0,0,6.1-2.6,13.8-7.1c8.1-4.8,19-6.6,28.7-6.2c-1.7-0.7-3.4-1.4-5.1-2.2c-5.5-2.5-10.8-5.5-15.8-8.9&#10;&#9;&#9;&#9;c-13.5-3.6-21.9-1.3-32.4,1.5c9.1,1.7,13.5-0.9,19.7-0.1c-10.8,4.1-16.2,9.9-35.4-1.9c0,0,6.5-0.9,15.1-3.3&#10;&#9;&#9;&#9;c9.3-2.6,20.6-1.4,30,1.7c-6.3-4.6-12.2-10-17.3-15.9c-0.1-0.1-0.1-0.1-0.2-0.2c-12.3-7.3-21.1-7.2-32.1-7.2c8.4,4,13.3,2.6,19,5&#10;&#9;&#9;&#9;c-11.5,1.2-18.3,5.4-33.7-11c0,0,6.5,0.8,15.4,0.8c9.9-0.1,20.7,4.1,29,9.7c-5-6.2-9.3-12.9-12.9-20&#10;&#9;&#9;&#9;c-10.2-10.5-18.8-12.8-29.6-15.7c7.1,6,12.1,5.9,17.1,9.7c-11.4-1.8-19,0.5-29.7-19.3c0,0,6.1,2.5,14.7,4.7&#10;&#9;&#9;&#9;C740.1,833.4,749.6,840.4,756.3,848.1z" style="fill: url('#gradient-10'); opacity: 1; fill-opacity: 1; stroke: rgb(0, 0, 0);"/>
	</g></g><g transform="matrix(1.0576012134552002, 0, 0, 1.0576012134552002, -875.6435546875, -497.8348922729492)"><path class="st22" d="M1378.6,697c-14.6,24-63.7,43.9-94,46.5c-30.3,2.6-49.1,5.2-45.4,17.2c13.1-7.8,14.1,15.1,0,25.1&#10;&#9;&#9;&#9;c-6.7,4.7-14.2,6.2-22.1,6.5c-14-0.8-14.5-15.6-14.5-22.4c0-7.3,11.6-14.8,20.3-13.5c0-6.3-2.4-9.4-16.8-6.6&#10;&#9;&#9;&#9;c0-6.2-23.8-1.1-33.3-5.6c-2.8,11.2,8.4,14,8.4,24.2c0,10.1-3.1,23.2-23.7,23.2c-5.1,0-13.9-2.6-18.4-5.8&#10;&#9;&#9;&#9;c-14.1-9.9-13.1-32.9,0-25.1c3.7-12-15.1-14.6-45.4-17.2c-30.3-2.6-79.4-22.5-94-46.5c0,41.8,47.5,63.2,85.1,67.9&#10;&#9;&#9;&#9;c-24,6.8-65.8,0.5-65.8,0.5c9.9,29.8,51.6,31.9,75.4,21.4c-31.4,31.4-59.7,26.1-59.7,26.1c21.2,21.2,62.7,10.4,71.6-6.3&#10;&#9;&#9;&#9;c-11.8,22.5-25.6,33.4-35,36c18.3,12,41.8,0.5,55.9-24.6c3.1,12-5.2,27.2-5.2,27.2c24.6-6.3,28.7-26.6,28.7-26.6&#10;&#9;&#9;&#9;c4.2,12-4.7,31.9-4.7,31.9s25.1-2.1,29.8-24.6c0,34-9.9,47-27.2,53.8c9.9,9.9,22.4,6,27.4,3.8c2.3,12.6,13.2,25.4,13.2,25.4&#10;&#9;&#9;&#9;s10.9-12.7,13.2-25.4c5.1,2.2,17.5,6.2,27.4-3.8c-17.2-6.8-27.2-19.9-27.2-53.8c4.7,22.5,29.8,24.6,29.8,24.6s-8.9-19.8-4.7-31.9&#10;&#9;&#9;&#9;c0,0,4.2,20.4,28.7,26.6c0,0-8.4-15.1-5.2-27.2c14.1,25.1,37.6,36.6,55.9,24.6c-9.4-2.6-23.2-13.6-35-36&#10;&#9;&#9;&#9;c8.9,16.7,50.4,27.4,71.6,6.3c0,0-28.3,5.3-59.7-26.1c23.8,10.5,65.5,8.4,75.4-21.4c0,0-41.8,6.3-65.8-0.5&#10;&#9;&#9;&#9;C1331,760.2,1378.6,738.8,1378.6,697z M1194.7,752.4c1.4,0,2.6,1.2,2.6,2.6c0,1.4-1.2,2.6-2.6,2.6c-1.4,0-2.6-1.2-2.6-2.6&#10;&#9;&#9;&#9;C1192.1,753.5,1193.3,752.4,1194.7,752.4z" style="fill: url('#gradient-8'); opacity: 1;" transform="matrix(1, 0, 0, 1, 0, 0)"/></g><path d="M 622.4310913085938 679.1046142578125 C 622.3827514648438 678.4664306640625 622.3993530273438 677.8467407226562 622.4808349609375 677.2455444335938 C 622.5623779296875 676.644287109375 622.7113647460938 676.0513916015625 622.9277954101562 675.4666748046875 L 623.1480712890625 675.3296508789062 C 624.3388061523438 675.4266967773438 625.6720581054688 675.4193115234375 627.1478271484375 675.3075561523438 L 627.3353271484375 676.3263549804688 C 625.693359375 676.45068359375 624.6338500976562 676.7180786132812 624.1567993164062 677.128662109375 C 623.6864624023438 677.5386352539062 623.4927978515625 678.2921142578125 623.5758666992188 679.3889770507812 C 623.6588745117188 680.48583984375 623.9450073242188 681.3065795898438 624.4342041015625 681.8511962890625 C 624.9300537109375 682.395263671875 625.5635375976562 682.6381225585938 626.3346557617188 682.5797729492188 C 627.0060424804688 682.5289306640625 627.5750732421875 682.1414794921875 628.041748046875 681.4175415039062 C 628.3824462890625 680.8836059570312 628.6635131835938 680.3575439453125 628.885009765625 679.83935546875 C 629.1060180664062 679.3145141601562 629.2190551757812 679.0418701171875 629.2241821289062 679.0214233398438 C 629.2288208007812 678.9943237304688 629.2403564453125 678.9700317382812 629.2587890625 678.9486083984375 C 629.2700805664062 678.9209594726562 629.3441772460938 678.7515869140625 629.4810791015625 678.4403686523438 C 629.617431640625 678.1224975585938 629.7755737304688 677.7828979492188 629.9555053710938 677.421630859375 C 630.1359252929688 677.0669555664062 630.3833618164062 676.6704711914062 630.6978149414062 676.232177734375 C 631.3082885742188 675.376953125 632.078857421875 674.9141235351562 633.0095825195312 674.8436279296875 C 634.2127685546875 674.7525024414062 635.2581787109375 675.1814575195312 636.1456909179688 676.1304931640625 C 637.0398559570312 677.0790405273438 637.5428466796875 678.2911987304688 637.6546020507812 679.7669677734375 C 637.7421875 680.9236450195312 637.637451171875 682.1015625 637.3405151367188 683.30078125 L 637.2161865234375 683.38037109375 C 636.0214233398438 683.2301635742188 634.7225341796875 683.161376953125 633.3194580078125 683.1740112304688 L 633.1625366210938 682.2933349609375 L 633.2616577148438 682.1454467773438 C 633.584228515625 682.1678466796875 633.9815673828125 682.1611328125 634.4534912109375 682.1254272460938 C 635.2578735351562 682.0645141601562 635.7978515625 681.822998046875 636.0734252929688 681.4010009765625 C 636.3495483398438 680.9856567382812 636.4523315429688 680.3126220703125 636.3818969726562 679.3819580078125 C 636.3114013671875 678.4512939453125 636.04638671875 677.7326049804688 635.5867919921875 677.225830078125 C 635.127197265625 676.7191162109375 634.5883178710938 676.4891357421875 633.9700927734375 676.5359497070312 C 633.3585205078125 676.582275390625 632.8465576171875 676.8851318359375 632.434326171875 677.4445190429688 C 632.0286865234375 678.00341796875 631.5446166992188 678.9392700195312 630.982177734375 680.252197265625 C 630.4263305664062 681.5645751953125 629.9541015625 682.4794921875 629.5653686523438 682.9970092773438 C 628.9231567382812 683.8746337890625 628.169921875 684.34619140625 627.3057250976562 684.4116821289062 C 625.9961547851562 684.5108032226562 624.8861083984375 684.0667114257812 623.9756469726562 683.0792846679688 C 623.07177734375 682.0914306640625 622.5569458007812 680.7664794921875 622.4310913085938 679.1046142578125 ZM 634.9140014648438 686.0792846679688 L 635.2481079101562 688.3958129882812 L 635.7811279296875 690.628662109375 L 634.8374633789062 690.6840209960938 C 634.6963500976562 690.2006225585938 634.54638671875 689.8876342773438 634.3875122070312 689.7450561523438 C 634.2352294921875 689.6013793945312 633.9821166992188 689.5420532226562 633.6281127929688 689.5670776367188 C 630.6544799804688 689.8920288085938 628.1812133789062 690.2183227539062 626.2081909179688 690.5460205078125 C 625.7281494140625 690.625732421875 625.4113159179688 690.732421875 625.2578125 690.8660278320312 C 625.1109008789062 690.9985961914062 625.0635986328125 691.2227172851562 625.1160278320312 691.5383911132812 L 625.339111328125 692.4542236328125 L 625.2568969726562 692.5084228515625 L 624.3231201171875 692.5012817382812 C 624.173583984375 691.3975219726562 624.062744140625 690.628662109375 623.9906616210938 690.194580078125 C 623.8585205078125 689.3988037109375 623.6528930664062 688.5881958007812 623.3739013671875 687.7627563476562 L 624.3208618164062 687.7271728515625 C 624.5211181640625 688.2818603515625 624.7395629882812 688.640869140625 624.9761962890625 688.8043212890625 C 625.2117309570312 688.961181640625 625.5794677734375 688.9981079101562 626.0792846679688 688.9151000976562 L 633.2658081054688 687.7518920898438 C 633.6406860351562 687.6896362304688 633.8829345703125 687.6021118164062 633.9926147460938 687.4892578125 C 634.1088256835938 687.3753662109375 634.14453125 687.18359375 634.0997924804688 686.9139404296875 L 633.9456787109375 686.1691284179688 L 634.0377197265625 686.11328125 L 634.9140014648438 686.0792846679688 ZM 627.1522216796875 704.7835693359375 C 626.8987426757812 703.3748168945312 626.6891479492188 702.406494140625 626.5234375 701.8785400390625 C 626.2499389648438 701.0071411132812 625.8675537109375 700.0894775390625 625.3764038085938 699.1256713867188 L 626.4171142578125 698.935302734375 C 626.7559814453125 699.569580078125 627.0885620117188 699.9613037109375 627.4148559570312 700.1104736328125 C 627.74951171875 700.263916015625 628.22216796875 700.244873046875 628.832763671875 700.05322265625 L 638.0077514648438 697.1943969726562 C 638.4720458984375 697.0486450195312 638.7699584960938 696.895751953125 638.9013671875 696.7357177734375 C 639.0264892578125 696.5776977539062 639.0391235351562 696.3396606445312 638.9392700195312 696.0216064453125 L 638.657958984375 695.2923583984375 L 638.7288818359375 695.2177124023438 L 639.7404174804688 695.0679321289062 C 640.0033569335938 696.0614624023438 640.2216796875 696.8348999023438 640.3953857421875 697.3883056640625 L 641.5233764648438 700.681640625 C 642.190185546875 702.8060913085938 642.1279907226562 704.7227172851562 641.336669921875 706.431396484375 C 640.5474243164062 708.146484375 639.128662109375 709.325439453125 637.0805053710938 709.9683227539062 C 635.0260009765625 710.6131591796875 633.0227661132812 710.4418334960938 631.0708618164062 709.4544067382812 C 629.125244140625 708.4649658203125 627.8190307617188 706.9080200195312 627.1522216796875 704.7835693359375 M 639.9816284179688 699.509521484375 C 639.8858032226562 699.2042236328125 639.7901000976562 699.0106811523438 639.694580078125 698.9288330078125 C 639.5969848632812 698.8406982421875 639.4508056640625 698.8201904296875 639.2560424804688 698.8673706054688 C 633.5780029296875 700.4119873046875 630.3446044921875 701.3080444335938 629.555908203125 701.5556030273438 C 628.7608032226562 701.80517578125 628.2865600585938 702.1531372070312 628.1332397460938 702.5995483398438 C 627.9735107421875 703.0479736328125 628.0673217773438 703.8255615234375 628.4147338867188 704.9323120117188 C 628.9078369140625 706.50341796875 629.8399658203125 707.5698852539062 631.211181640625 708.1317138671875 C 632.5759887695312 708.6954956054688 634.2125244140625 708.677978515625 636.1207275390625 708.0790405273438 C 638.0289306640625 707.4801025390625 639.3197631835938 706.4390869140625 639.9932250976562 704.9560546875 C 640.6602783203125 703.4749755859375 640.6564331054688 701.6594848632812 639.9816284179688 699.509521484375 ZM 637.8267822265625 714.3582763671875 L 638.5877685546875 716.0774536132812 L 639.6923828125 718.0687255859375 L 639.6295776367188 718.1962280273438 L 638.42138671875 718.4387817382812 C 638.0151977539062 717.46630859375 637.7001953125 716.734375 637.4763793945312 716.2429809570312 C 637.2526245117188 715.7515258789062 636.996826171875 715.2783203125 636.7090454101562 714.8233032226562 C 635.634033203125 715.2615966796875 634.7719116210938 715.6286010742188 634.1226806640625 715.9241943359375 C 633.4796142578125 716.2171020507812 633.1368408203125 716.4537353515625 633.094482421875 716.6342163085938 C 633.0433349609375 716.8113403320312 633.1876220703125 717.2730712890625 633.5274658203125 718.019287109375 C 633.8645629882812 718.759521484375 634.1656494140625 719.2999877929688 634.4307250976562 719.6407470703125 C 634.69580078125 719.9815673828125 634.9913940429688 720.1802368164062 635.3175048828125 720.2368774414062 C 635.6469116210938 720.2846069335938 636.1461791992188 720.2147216796875 636.8153076171875 720.0272216796875 L 637.3157958984375 720.9091186523438 L 637.243896484375 721.040771484375 C 636.2338256835938 721.251708984375 635.2213134765625 721.5296630859375 634.2063598632812 721.8746337890625 L 634.0482177734375 721.7928466796875 C 633.0650634765625 719.4569091796875 632.3924560546875 717.8915405273438 632.030517578125 717.0967407226562 C 631.5000610351562 715.931884765625 630.978515625 714.931396484375 630.4658813476562 714.0952758789062 L 631.3851318359375 713.7975463867188 C 631.6746215820312 714.2883911132812 631.9578247070312 714.5806274414062 632.23486328125 714.6741943359375 C 632.5091552734375 714.76171875 632.8829345703125 714.69775390625 633.3561401367188 714.4822387695312 L 639.9757080078125 711.5006713867188 C 640.321533203125 711.3432006835938 640.5327758789062 711.1957397460938 640.609375 711.0582885742188 C 640.6920166015625 710.9180908203125 640.6766967773438 710.7235717773438 640.5634155273438 710.474853515625 L 640.2791748046875 709.9230346679688 L 640.3494873046875 709.8360595703125 L 641.19921875 709.6029052734375 C 641.6192626953125 710.605712890625 642.1746826171875 711.865478515625 642.8654174804688 713.3822631835938 C 643.5588989257812 714.9050903320312 644.22216796875 716.1926879882812 644.855224609375 717.2449340820312 L 644.7750244140625 717.3583984375 C 643.8250732421875 717.5565795898438 642.8343505859375 717.8502197265625 641.8028564453125 718.2393798828125 L 641.2650756835938 717.275634765625 C 641.5855712890625 717.1589965820312 641.8216552734375 717.0661010742188 641.9733276367188 716.9970703125 C 642.4829711914062 716.7649536132812 642.739013671875 716.4908447265625 642.7415771484375 716.1746826171875 C 642.7352905273438 715.855224609375 642.5442504882812 715.282958984375 642.1685180664062 714.4578247070312 C 641.792724609375 713.6326904296875 641.5496215820312 713.1793212890625 641.439208984375 713.0977172851562 C 641.3260498046875 713.0100708007812 641.127197265625 713.0237426757812 640.8425903320312 713.1387329101562 L 637.8267822265625 714.3582763671875 ZM 639.2821655273438 728.9429931640625 C 640.2800903320312 730.6221313476562 641.5870971679688 730.9815063476562 643.2032470703125 730.0211181640625 L 648.1002807617188 727.0062255859375 C 648.432861328125 726.769775390625 648.629150390625 726.5911254882812 648.6890869140625 726.4701538085938 C 648.7514038085938 726.340087890625 648.7161254882812 726.1632690429688 648.583251953125 725.9397583007812 L 648.1589965820312 725.2846069335938 L 648.208984375 725.2316284179688 L 649.05419921875 724.8922119140625 C 649.5091552734375 725.7230224609375 649.8575439453125 726.3419189453125 650.099365234375 726.748779296875 L 651.2005615234375 728.3278198242188 L 650.3739624023438 728.7376708984375 C 650.0384521484375 728.316650390625 649.777099609375 728.0725708007812 649.58984375 728.0054931640625 C 649.4083251953125 727.9349365234375 649.17431640625 727.98486328125 648.8877563476562 728.1551513671875 L 643.8502197265625 731.1488647460938 C 642.7612915039062 731.7959594726562 641.7110595703125 731.947021484375 640.6995239257812 731.60205078125 C 639.6788940429688 731.2547607421875 638.8040771484375 730.4678955078125 638.0752563476562 729.241455078125 C 637.346435546875 728.0150146484375 637.0908813476562 726.926025390625 637.3087158203125 725.9745483398438 C 637.5231323242188 725.017333984375 638.1748046875 724.2151489257812 639.263671875 723.5680541992188 L 644.2840576171875 720.5845947265625 C 644.6107177734375 720.3904418945312 644.806396484375 720.2237548828125 644.8709716796875 720.0845336914062 C 644.9379272460938 719.9362182617188 644.901611328125 719.7445068359375 644.761962890625 719.5095825195312 L 644.41943359375 718.9918823242188 L 644.4540405273438 718.9131469726562 L 645.2992553710938 718.57373046875 C 645.771240234375 719.4332275390625 646.1434936523438 720.0922241210938 646.4159545898438 720.5506591796875 L 647.5733642578125 722.2242431640625 L 646.7365112304688 722.6168823242188 C 646.4601440429688 722.269287109375 646.22265625 722.0653686523438 646.02392578125 722.0050659179688 C 645.8309936523438 721.9413452148438 645.58154296875 721.9849243164062 645.275634765625 722.1356811523438 L 640.6995239257812 724.6923217773438 C 639.7711181640625 725.2440795898438 639.1824340820312 725.8847045898438 638.9335327148438 726.6142578125 C 638.6823120117188 727.3529052734375 638.7985229492188 728.129150390625 639.2821655273438 728.9429931640625 ZM 643.9174194335938 738.0787963867188 C 643.5988159179688 737.6510620117188 643.3262329101562 737.2015380859375 643.0997924804688 736.7301635742188 C 642.8772583007812 736.2640991210938 642.7101440429688 735.7775268554688 642.5984497070312 735.2705078125 L 642.6951904296875 735.048828125 C 643.5645751953125 734.6089477539062 644.4403686523438 734.0604248046875 645.3224487304688 733.4032592773438 L 646.0159912109375 734.1835327148438 C 645.0590209960938 734.8964233398438 644.5204467773438 735.4846801757812 644.4002685546875 735.9483032226562 C 644.2841186523438 736.4172973632812 644.4769287109375 736.9885864257812 644.978759765625 737.6621704101562 C 645.4806518554688 738.3358154296875 645.9932861328125 738.756103515625 646.5167236328125 738.9231567382812 C 647.044189453125 739.0955200195312 647.5244140625 739.0203857421875 647.9574584960938 738.69775390625 C 648.3584594726562 738.3990478515625 648.5479736328125 737.9169921875 648.526123046875 737.2515869140625 C 648.5020141601562 736.8621826171875 648.4776611328125 736.57275390625 648.4529418945312 736.3833618164062 C 648.3583984375 735.9216918945312 648.2679443359375 735.44873046875 648.1814575195312 734.9644775390625 C 648.091064453125 734.474853515625 648.0270385742188 734.0653076171875 647.9894409179688 733.73583984375 C 647.9531860351562 733.3970336914062 647.9370727539062 733.018310546875 647.9411010742188 732.5996704101562 C 647.9757080078125 731.7758178710938 648.3004760742188 731.1348266601562 648.915283203125 730.6768188476562 C 649.69580078125 730.0953369140625 650.5975952148438 729.95556640625 651.62060546875 730.2575073242188 C 652.6489868164062 730.5554809570312 653.5475463867188 731.2203369140625 654.3162231445312 732.252197265625 C 654.9534912109375 733.1075439453125 655.42333984375 733.9837646484375 655.7257690429688 734.8807373046875 L 655.6512451171875 735.0484619140625 C 654.7753295898438 735.4349975585938 653.8824462890625 735.9214477539062 652.9725341796875 736.5078735351562 L 652.3626708984375 735.8399047851562 L 652.357177734375 735.681884765625 C 652.5548706054688 735.56787109375 652.8381958007812 735.3734130859375 653.2070922851562 735.0986328125 C 653.575927734375 734.8237915039062 653.7603759765625 734.4910888671875 653.76025390625 734.1004028320312 C 653.7655639648438 733.7057495117188 653.5551147460938 733.222412109375 653.1289672851562 732.6503295898438 C 652.6987915039062 732.072998046875 652.2379760742188 731.7055053710938 651.7464599609375 731.5479125976562 C 651.2550048828125 731.3903198242188 650.8274536132812 731.4469604492188 650.4639282226562 731.7177734375 C 650.0950317382812 731.9926147460938 649.90771484375 732.3939819335938 649.9020385742188 732.9219970703125 C 649.8963623046875 733.449951171875 649.9650268554688 734.0722045898438 650.1080322265625 734.7886352539062 C 650.2470703125 735.499755859375 650.3382568359375 735.9680786132812 650.3815307617188 736.1935424804688 C 650.4248046875 736.4190063476562 650.4664306640625 736.7538452148438 650.5062866210938 737.1979370117188 C 650.5408935546875 737.6460571289062 650.5277709960938 737.9967041015625 650.4669189453125 738.2498168945312 C 650.3499755859375 738.9521484375 650.0589599609375 739.4765014648438 649.5938720703125 739.8230590820312 C 648.7598876953125 740.4443359375 647.8187255859375 740.5926513671875 646.7704467773438 740.2679443359375 C 645.716796875 739.947265625 644.7658081054688 739.217529296875 643.9174194335938 738.0787963867188 ZM 664.8497314453125 745.7490234375 L 664.3677978515625 745.269287109375 L 664.4028930664062 745.1631469726562 L 665.1442260742188 744.6453247070312 C 665.7066040039062 745.27099609375 666.1508178710938 745.74609375 666.476806640625 746.0706787109375 L 667.950439453125 747.3401489257812 L 667.2234497070312 747.9428100585938 C 666.5670776367188 747.4398803710938 665.9989624023438 747.4152221679688 665.5191650390625 747.868896484375 L 658.3855590820312 754.6519775390625 L 657.5784912109375 754.2012329101562 C 658.323486328125 750.1171875 658.9279174804688 746.3822631835938 659.3917236328125 742.9965209960938 L 659.313720703125 742.9189453125 L 654.3749389648438 747.7808227539062 C 654.16796875 747.9887084960938 654.0576171875 748.1610107421875 654.0437622070312 748.2977905273438 C 654.03466796875 748.439208984375 654.105712890625 748.585205078125 654.2568969726562 748.7357177734375 L 654.9300537109375 749.363525390625 L 654.9302978515625 749.4625244140625 L 654.1465454101562 749.98046875 C 653.57470703125 749.3453369140625 653.0997924804688 748.8396606445312 652.7218627929688 748.46337890625 L 651.2765502929688 747.2221069335938 L 652.0177001953125 746.633544921875 C 652.617431640625 747.098876953125 653.1524658203125 747.104736328125 653.6228637695312 746.6511840820312 L 659.1337280273438 741.4697875976562 C 659.4017944335938 741.2005004882812 659.5096435546875 740.9362182617188 659.4572143554688 740.6770629882812 C 659.4000244140625 740.4226684570312 659.1776123046875 740.0460205078125 658.7899780273438 739.5472412109375 L 658.8037719726562 739.40576171875 L 659.4674682617188 738.9658813476562 C 659.9542846679688 739.53515625 660.3441772460938 739.9656372070312 660.6371459960938 740.2572631835938 L 661.6715698242188 741.1882934570312 C 661.0613403320312 744.4187622070312 660.5126953125 747.8047485351562 660.0256958007812 751.3460693359375 L 660.1107177734375 751.4307250976562 L 664.7599487304688 746.718017578125 C 665.1127319335938 746.3636474609375 665.1426391601562 746.0406494140625 664.8497314453125 745.7490234375 ZM 666.4256591796875 753.4287109375 C 666.4256591796875 753.4287109375 666.206787109375 753.7102661132812 665.7689208984375 754.2734375 C 665.3311157226562 754.8366088867188 665.1114501953125 755.7002563476562 665.1099853515625 756.8644409179688 C 665.09912109375 758.0297241210938 665.543701171875 758.9622192382812 666.4437255859375 759.6619262695312 C 667.3384399414062 760.3575439453125 668.3023681640625 760.6002807617188 669.3355102539062 760.39013671875 C 670.3727416992188 760.1747436523438 671.3291625976562 759.50390625 672.204833984375 758.3775634765625 C 673.0804443359375 757.251220703125 673.51171875 756.1044921875 673.4985961914062 754.9374389648438 C 673.480224609375 753.7662963867188 673.0210571289062 752.8308715820312 672.1210327148438 752.1311645507812 C 671.2262573242188 751.435546875 670.2722778320312 751.1963500976562 669.259033203125 751.4134521484375 C 668.2457885742188 751.630615234375 667.3013305664062 752.3023681640625 666.4256591796875 753.4287109375 M 674.09765625 759.1524658203125 C 674.09765625 759.1524658203125 673.8317260742188 759.4945678710938 673.2997436523438 760.1787719726562 C 672.767822265625 760.863037109375 671.6651611328125 761.3146362304688 669.9918212890625 761.53369140625 C 668.3131713867188 761.7486572265625 666.8106689453125 761.340576171875 665.4843139648438 760.3093872070312 C 664.1632690429688 759.2823486328125 663.4315185546875 758.0675048828125 663.2891235351562 756.6648559570312 C 663.14794921875 755.2715454101562 663.6092529296875 753.890625 664.673095703125 752.522216796875 C 665.73291015625 751.1589965820312 667.0921630859375 750.366455078125 668.7509155273438 750.1444702148438 C 670.40966796875 749.9225463867188 671.9048461914062 750.3291625976562 673.2364501953125 751.3643798828125 C 674.5680541992188 752.3995971679688 675.3097534179688 753.6179809570312 675.4614868164062 755.0194702148438 C 675.612060546875 756.41162109375 675.157470703125 757.789306640625 674.09765625 759.1524658203125 ZM 676.0636596679688 767.589111328125 L 673.9365234375 766.0831298828125 C 673.3614501953125 765.7329711914062 672.6730346679688 765.395751953125 671.8713989257812 765.071533203125 L 672.4542236328125 764.3258666992188 C 672.9937133789062 764.5294799804688 673.402587890625 764.5950317382812 673.680908203125 764.5225219726562 C 673.9534912109375 764.446533203125 674.2163696289062 764.2007446289062 674.469482421875 763.7850341796875 L 678.3073120117188 757.5399780273438 C 678.4979858398438 757.226806640625 678.58642578125 756.9918212890625 678.5725708007812 756.8350830078125 C 678.5621948242188 756.6726684570312 678.4459838867188 756.5238647460938 678.223876953125 756.388671875 L 677.6616821289062 756.0814208984375 L 677.6538696289062 755.9595947265625 L 678.2259521484375 755.289306640625 C 679.0797729492188 755.8482666015625 679.7031860351562 756.2473754882812 680.0960693359375 756.4866333007812 L 682.1756591796875 757.6475219726562 C 683.206298828125 758.2750854492188 683.8775634765625 758.9609375 684.1893920898438 759.7049560546875 C 684.5069580078125 760.4525146484375 684.4351806640625 761.2049560546875 683.9739990234375 761.9622802734375 C 683.6585083007812 762.4804077148438 683.2062377929688 762.8450317382812 682.6171875 763.05615234375 C 682.0303344726562 763.2764282226562 681.4011840820312 763.3226318359375 680.729736328125 763.1947631835938 C 681.3605346679688 763.7739868164062 681.7794799804688 764.3998413085938 681.986572265625 765.0723266601562 C 682.1937255859375 765.744873046875 682.1187133789062 766.3743286132812 681.7615966796875 766.9608154296875 C 681.251953125 767.7978515625 680.443359375 768.2733764648438 679.3358154296875 768.3873291015625 C 678.224853515625 768.5070190429688 677.1341552734375 768.2409057617188 676.0636596679688 767.589111328125 M 675.7940673828125 764.7438354492188 C 675.5687255859375 765.1139526367188 675.5419311523438 765.4527587890625 675.7136840820312 765.7603149414062 C 675.8797607421875 766.0643920898438 676.2760009765625 766.4071044921875 676.90234375 766.7885131835938 C 677.5286865234375 767.1698608398438 678.1109008789062 767.3097534179688 678.64892578125 767.2080688476562 C 679.1812744140625 767.1029052734375 679.6138916015625 766.7770385742188 679.9467163085938 766.2304077148438 C 680.5812377929688 765.1883544921875 680.3004760742188 764.1432495117188 679.1045532226562 763.094970703125 L 677.4713134765625 762.1239013671875 L 675.7940673828125 764.7438354492188 M 682.251220703125 761.3113403320312 C 682.972412109375 760.126953125 682.4390258789062 758.9904174804688 680.6510620117188 757.9016723632812 C 680.548583984375 757.8392944335938 680.4617919921875 757.8215942382812 680.3907470703125 757.8485717773438 C 680.2199096679688 757.9240112304688 679.4557495117188 759.0315551757812 678.098388671875 761.1710205078125 C 679.124755859375 761.9208984375 679.7024536132812 762.3117065429688 679.8314819335938 762.3433837890625 C 679.9547729492188 762.3716430664062 680.1210327148438 762.3870239257812 680.3302612304688 762.3895263671875 C 680.545166015625 762.3955078125 680.7493896484375 762.36767578125 680.9430541992188 762.3060913085938 C 681.4822998046875 762.1895141601562 681.9183959960938 761.8579711914062 682.251220703125 761.3113403320312 ZM 687.9866943359375 761.0028686523438 L 690.062744140625 762.0835571289062 L 692.18701171875 762.953857421875 L 691.6812133789062 763.75244140625 C 691.206298828125 763.5848999023438 690.8646240234375 763.5240478515625 690.6561279296875 763.56982421875 C 690.4506225585938 763.609619140625 690.2546997070312 763.780517578125 690.0684204101562 764.0825805664062 C 688.5968627929688 766.6868896484375 687.4183349609375 768.8857421875 686.5330200195312 770.6790771484375 C 686.3175659179688 771.115478515625 686.2192993164062 771.4349975585938 686.2382202148438 771.6376342773438 C 686.2600708007812 771.8342895507812 686.4144897460938 772.0034790039062 686.701416015625 772.1451416015625 L 687.5753173828125 772.4984741210938 L 687.5712890625 772.5968627929688 L 687.0205688476562 773.3510131835938 C 686.0370483398438 772.8282470703125 685.3479614257812 772.469482421875 684.9534301757812 772.2747192382812 C 684.2301025390625 771.9176025390625 683.451904296875 771.6115112304688 682.6187744140625 771.3563232421875 L 683.1425170898438 770.5665893554688 C 683.7097778320312 770.7276611328125 684.1288452148438 770.7598266601562 684.399658203125 770.6630859375 C 684.66455078125 770.5633544921875 684.9091186523438 770.2863159179688 685.1333618164062 769.8319702148438 L 688.3829956054688 763.3174438476562 C 688.5512084960938 762.9766845703125 688.6215209960938 762.7288818359375 688.5938720703125 762.573974609375 C 688.5692138671875 762.4131469726562 688.4343872070312 762.272216796875 688.1892700195312 762.1511840820312 L 687.4945068359375 761.8416748046875 L 687.5029296875 761.7342529296875 L 687.9866943359375 761.0028686523438 ZM 692.1539916992188 775.7467041015625 C 691.6583251953125 775.5497436523438 691.1904907226562 775.3099365234375 690.7503662109375 775.0274658203125 C 690.3164672851562 774.7473754882812 689.9190063476562 774.4207763671875 689.5579223632812 774.0477294921875 L 689.5239868164062 773.8082275390625 C 690.033447265625 772.9777221679688 690.4912719726562 772.0513305664062 690.8975830078125 771.0291137695312 L 691.8972778320312 771.32958984375 C 691.45654296875 772.4385375976562 691.3065795898438 773.2218627929688 691.447509765625 773.6796264648438 C 691.5946044921875 774.1398315429688 692.0584106445312 774.5250244140625 692.8390502929688 774.8353271484375 C 693.61962890625 775.1455688476562 694.276611328125 775.2344970703125 694.8098754882812 775.1021118164062 C 695.3493041992188 774.97216796875 695.7188110351562 774.65625 695.918212890625 774.1544799804688 C 696.1029052734375 773.6898193359375 696.0114135742188 773.1799926757812 695.6437377929688 772.6249389648438 C 695.4190063476562 772.3060302734375 695.2463989257812 772.0724487304688 695.1259765625 771.9241333007812 C 694.8033447265625 771.5806884765625 694.4782104492188 771.2254638671875 694.1505737304688 770.8585205078125 C 693.8167724609375 770.4891357421875 693.5474243164062 770.1740112304688 693.3425903320312 769.9132690429688 C 693.134033203125 769.6438598632812 692.921630859375 769.329833984375 692.7054443359375 768.9713134765625 C 692.3027954101562 768.251708984375 692.2430419921875 767.53564453125 692.5261840820312 766.8231811523438 C 692.8856811523438 765.918701171875 693.5801391601562 765.32666015625 694.6094970703125 765.047119140625 C 695.641357421875 764.7613525390625 696.755126953125 764.8560791015625 697.9508056640625 765.331298828125 C 698.9420166015625 765.7252807617188 699.8016967773438 766.2247924804688 700.5296630859375 766.8297729492188 L 700.55419921875 767.01171875 C 700.01123046875 767.8002319335938 699.5062255859375 768.6828002929688 699.0391845703125 769.6593627929688 L 698.1696166992188 769.4105834960938 L 698.08203125 769.2789306640625 C 698.1905517578125 769.078125 698.3297119140625 768.7639770507812 698.4996337890625 768.3364868164062 C 698.6695556640625 767.9090576171875 698.6519775390625 767.5289916992188 698.4469604492188 767.1964721679688 C 698.2444458007812 766.857666015625 697.8117065429688 766.5565795898438 697.1488647460938 766.2930908203125 C 696.479736328125 766.0271606445312 695.8946533203125 765.9560546875 695.3935546875 766.0797119140625 C 694.8924560546875 766.203369140625 694.5581665039062 766.475830078125 694.3907470703125 766.8970947265625 C 694.2208251953125 767.3245849609375 694.2719116210938 767.7645874023438 694.5440673828125 768.217041015625 C 694.816162109375 768.6695556640625 695.2009887695312 769.1632690429688 695.6986083984375 769.6982421875 C 696.1900024414062 770.230712890625 696.5133056640625 770.5816040039062 696.6683959960938 770.7508544921875 C 696.8235473632812 770.9201049804688 697.0345458984375 771.183349609375 697.301513671875 771.54052734375 C 697.5659790039062 771.9039306640625 697.7387084960938 772.2092895507812 697.8197631835938 772.4567260742188 C 698.088623046875 773.115966796875 698.1159057617188 773.715087890625 697.9016723632812 774.2540893554688 C 697.517578125 775.2205810546875 696.7940673828125 775.8405151367188 695.7312622070312 776.1139526367188 C 694.666015625 776.3936157226562 693.4735717773438 776.2711791992188 692.1539916992188 775.7467041015625 ZM 708.2918090820312 780.2965087890625 C 707.104248046875 780.450927734375 705.734619140625 780.3074951171875 704.1828002929688 779.8661499023438 C 702.6245727539062 779.4230346679688 701.4971923828125 778.5861206054688 700.8005981445312 777.3552856445312 C 700.1040649414062 776.12451171875 699.9992065429688 774.6530151367188 700.486083984375 772.94091796875 C 700.9711303710938 771.2352294921875 701.9631958007812 769.989013671875 703.4622192382812 769.202392578125 C 704.9630126953125 768.4093627929688 706.6400146484375 768.2763061523438 708.4932250976562 768.8032836914062 C 709.429443359375 769.069580078125 710.460205078125 769.51513671875 711.5855102539062 770.14013671875 L 711.6337890625 770.2993774414062 C 711.153076171875 771.1122436523438 710.7156372070312 772.0656127929688 710.3214111328125 773.1594848632812 L 709.2056884765625 772.9150390625 C 709.3152465820312 772.6273193359375 709.4092407226562 772.3456420898438 709.4876098632812 772.0698852539062 C 709.78125 771.0374755859375 709.1072387695312 770.2879028320312 707.4656372070312 769.821044921875 C 706.3178100585938 769.49462890625 705.3060913085938 769.6158447265625 704.430419921875 770.1846923828125 C 703.5547485351562 770.7535400390625 702.9181518554688 771.7368774414062 702.5206298828125 773.1348266601562 C 702.1249389648438 774.5263061523438 702.1534423828125 775.7542724609375 702.6062622070312 776.8187255859375 C 703.0590209960938 777.8831787109375 703.8721313476562 778.5822143554688 705.0455932617188 778.9159545898438 C 706.5589599609375 779.3463134765625 707.7573852539062 778.7514038085938 708.640869140625 777.1312866210938 L 709.7716674804688 777.3593139648438 C 709.2261962890625 778.3755493164062 708.7951049804688 779.3064575195312 708.4783935546875 780.1520385742188 L 708.2918090820312 780.2965087890625 ZM 716.5703735351562 781.3922119140625 C 718.4967041015625 781.7161254882812 719.61572265625 780.9510498046875 719.9274291992188 779.0970458984375 L 720.7920532226562 773.4117431640625 C 720.8265991210938 773.0051879882812 720.8170776367188 772.7399291992188 720.7635498046875 772.6160278320312 C 720.70458984375 772.484375 720.546875 772.3970336914062 720.2904663085938 772.3539428710938 L 719.5162963867188 772.2542114257812 L 719.5081787109375 772.1818237304688 L 719.7954711914062 771.3175048828125 C 720.7235107421875 771.50732421875 721.4208984375 771.6414794921875 721.8876953125 771.719970703125 L 723.8043212890625 771.9002685546875 L 723.582763671875 772.7958984375 C 723.0446166992188 772.77978515625 722.689453125 772.821533203125 722.5172729492188 772.9210205078125 C 722.34619140625 773.013916015625 722.2329711914062 773.2247314453125 722.177734375 773.553466796875 L 721.2061157226562 779.3323364257812 C 720.99609375 780.5814819335938 720.4325561523438 781.48046875 719.5155029296875 782.0293579101562 C 718.5908203125 782.583740234375 717.4249877929688 782.7426147460938 716.01806640625 782.5060424804688 C 714.6111450195312 782.26953125 713.6150512695312 781.7606811523438 713.0298461914062 780.9794921875 C 712.43798828125 780.1972045898438 712.2471313476562 779.1814575195312 712.4571533203125 777.932373046875 L 713.4254150390625 772.1731567382812 C 713.4884033203125 771.7984619140625 713.4876708984375 771.5414428710938 713.4232177734375 771.4021606445312 C 713.353271484375 771.2551879882812 713.1835327148438 771.1590576171875 712.9140014648438 771.1137084960938 L 712.297607421875 771.04052734375 L 712.2598876953125 770.9631958007812 L 712.5471801757812 770.098876953125 C 713.5081176757812 770.294189453125 714.2515258789062 770.4360961914062 714.7774658203125 770.5245361328125 L 716.8026123046875 770.7230834960938 L 716.561279296875 771.6154174804688 C 716.117431640625 771.6016235351562 715.8082885742188 771.6510620117188 715.6339111328125 771.763671875 C 715.4605712890625 771.8697509765625 715.3325805664062 772.0881958007812 715.2498779296875 772.4190673828125 L 714.2430419921875 777.5633544921875 C 714.06396484375 778.62841796875 714.1723022460938 779.4916381835938 714.568115234375 780.153076171875 C 714.9694213867188 780.8222045898438 715.6368408203125 781.2352905273438 716.5703735351562 781.3922119140625 ZM 737.3959350585938 784.0621948242188 C 736.6510009765625 784.0013427734375 736.1219482421875 783.9651489257812 735.808837890625 783.95361328125 C 735.4957275390625 783.9420166015625 734.6978759765625 783.9592895507812 733.415283203125 784.00537109375 L 733.5399169921875 783.0693359375 C 733.9413452148438 783.0374755859375 734.2279052734375 782.9546508789062 734.399658203125 782.8208618164062 C 734.5711059570312 782.6937866210938 734.661865234375 782.49365234375 734.6719360351562 782.2205200195312 L 734.36669921875 775.0343627929688 L 734.2467651367188 775.0299072265625 C 733.2623291015625 777.3018798828125 732.0086669921875 780.27099609375 730.48583984375 783.9373168945312 L 729.8211059570312 784.0529174804688 C 728.4295654296875 779.8187255859375 727.3898315429688 776.71826171875 726.701904296875 774.7515869140625 L 726.5919799804688 774.74755859375 C 726.0349731445312 779.3568115234375 725.7503662109375 781.8280029296875 725.7380981445312 782.1610717773438 C 725.7257690429688 782.4942016601562 725.9194946289062 782.6681518554688 726.3192138671875 782.682861328125 L 727.0487670898438 782.7097778320312 L 727.0961303710938 782.7815551757812 L 726.90234375 783.695068359375 C 726.0313110351562 783.6162109375 725.382568359375 783.5689697265625 724.9562377929688 783.55322265625 L 723.2821655273438 783.6315307617188 L 723.4067993164062 782.6954956054688 C 723.8082275390625 782.6636352539062 724.0958251953125 782.5541381835938 724.2694702148438 782.3670654296875 C 724.4429321289062 782.1867065429688 724.568359375 781.861083984375 724.645751953125 781.3903198242188 C 725.3362426757812 777.1395263671875 725.6953125 774.6410522460938 725.7228393554688 773.8948974609375 C 725.734130859375 773.5884399414062 725.6259155273438 773.357666015625 725.3981323242188 773.2024536132812 C 725.1636962890625 773.0470581054688 724.7571411132812 772.9453125 724.1785278320312 772.8972778320312 L 724.113037109375 772.7747802734375 L 724.310546875 772.0315551757812 C 725.3143310546875 772.128662109375 726.0194091796875 772.1846923828125 726.42578125 772.1996459960938 L 727.9173583984375 772.1846313476562 C 728.8073120117188 775.3662719726562 729.687255859375 778.1873168945312 730.55712890625 780.647705078125 L 730.6770629882812 780.6521606445312 C 731.697509765625 778.3081665039062 732.812255859375 775.577392578125 734.0213623046875 772.4598999023438 L 734.37109375 772.4727783203125 L 735.5296020507812 772.5355224609375 L 737.5322875976562 772.4993286132812 L 737.570068359375 772.560791015625 L 737.4302368164062 773.3661499023438 C 736.8950805664062 773.406494140625 736.5181884765625 773.4959716796875 736.2996215820312 773.6346435546875 C 736.0812377929688 773.7667236328125 735.9664306640625 773.9859619140625 735.9551391601562 774.2924194335938 C 735.916259765625 775.3450317382812 735.9893188476562 777.7059936523438 736.1741333007812 781.3753051757812 C 736.2221069335938 782.064208984375 736.3021240234375 782.5174560546875 736.4141845703125 782.735107421875 C 736.5328979492188 782.9529418945312 736.7354736328125 783.067138671875 737.02197265625 783.0776977539062 L 737.5523071289062 783.0772705078125 L 737.5897216796875 783.148681640625 L 737.3959350585938 784.0621948242188 ZM 756.1080932617188 784.262451171875 C 756.610595703125 784.1978149414062 757.1116333007812 784.0695190429688 757.6112670898438 783.8775024414062 L 757.7119750976562 783.9552612304688 L 757.9095458984375 784.3936767578125 C 756.989501953125 785.392578125 756.3939208984375 785.9094848632812 756.122802734375 785.9443359375 C 755.243408203125 786.0574951171875 754.3416748046875 785.9449462890625 753.4176025390625 785.6067504882812 C 752.5010375976562 785.2743530273438 750.8505249023438 784.461669921875 748.4660034179688 783.168701171875 C 746.9121704101562 783.36865234375 745.5874633789062 783.0248413085938 744.491943359375 782.1373901367188 C 743.4038696289062 781.2556762695312 742.7492065429688 779.9552612304688 742.528076171875 778.236083984375 C 742.3077392578125 776.5235595703125 742.7032470703125 775.0006103515625 743.7147216796875 773.6673583984375 C 744.7261962890625 772.3340454101562 746.068359375 771.5597534179688 747.7412719726562 771.3445434570312 C 749.4141235351562 771.1292724609375 750.8012084960938 771.461669921875 751.9025268554688 772.3416748046875 C 752.996337890625 773.2158813476562 753.6419677734375 774.4200439453125 753.8392944335938 775.9540405273438 C 754.0366821289062 777.4880981445312 753.8051147460938 778.8487548828125 753.14453125 780.0360717773438 C 752.4839477539062 781.223388671875 751.5266723632812 782.0892944335938 750.2725219726562 782.6337890625 L 750.2865600585938 782.742919921875 C 752.8054809570312 783.9312133789062 754.7459716796875 784.4376831054688 756.1080932617188 784.262451171875 M 744.40625 777.6314697265625 C 744.40625 777.6314697265625 744.4517822265625 777.9852294921875 744.5427856445312 778.6927490234375 C 744.6337890625 779.4002685546875 745.091796875 780.1647338867188 745.9166870117188 780.9862060546875 C 746.73583984375 781.8150634765625 747.7107543945312 782.1567993164062 748.8414306640625 782.0113525390625 C 749.9654541015625 781.86669921875 750.8170166015625 781.3538818359375 751.3959350585938 780.4727783203125 C 751.9740600585938 779.5850830078125 752.172119140625 778.4337158203125 751.9900512695312 777.0187377929688 C 751.8079833984375 775.603759765625 751.29833984375 774.4896850585938 750.4610595703125 773.676513671875 C 749.6171875 772.8642578125 748.6298828125 772.5308227539062 747.4992065429688 772.67626953125 C 746.3751220703125 772.8209228515625 745.5331420898438 773.3291625976562 744.97314453125 774.2011108398438 C 744.4131469726562 775.0730590820312 744.2241821289062 776.2164916992188 744.40625 777.6314697265625 ZM 761.816650390625 779.440673828125 C 763.7120971679688 778.9685668945312 764.4326782226562 777.8204345703125 763.9783325195312 775.9961547851562 L 762.5013427734375 770.4383544921875 C 762.3707275390625 770.0517578125 762.2561645507812 769.8123779296875 762.1575927734375 769.7200927734375 C 762.0509643554688 769.6229858398438 761.8715209960938 769.6058959960938 761.6192016601562 769.668701171875 L 760.8695678710938 769.8863525390625 L 760.833251953125 769.8232421875 L 760.7515869140625 768.9160766601562 C 761.6782836914062 768.7196655273438 762.3712768554688 768.564208984375 762.83056640625 768.4498291015625 L 764.6597900390625 767.8499755859375 L 764.814208984375 768.7596435546875 C 764.3143920898438 768.9596557617188 764.0054321289062 769.1397094726562 763.8872680664062 769.2996215820312 C 763.7674560546875 769.453125 763.7478637695312 769.691650390625 763.8284301757812 770.0150756835938 L 765.24462890625 775.7013549804688 C 765.5507202148438 776.9304809570312 765.3929443359375 777.979736328125 764.7713012695312 778.8490600585938 C 764.144775390625 779.7265014648438 763.1392822265625 780.3375854492188 761.7549438476562 780.682373046875 C 760.3705444335938 781.0271606445312 759.254150390625 780.958251953125 758.4057006835938 780.4756469726562 C 757.55078125 779.9946899414062 756.9702758789062 779.1396484375 756.6641235351562 777.9105224609375 L 755.2528076171875 772.24365234375 C 755.1609497070312 771.8748779296875 755.0576782226562 771.6395263671875 754.9429931640625 771.53759765625 C 754.8201904296875 771.4307250976562 754.6261596679688 771.4103393554688 754.3609619140625 771.4764404296875 L 753.7665405273438 771.6553955078125 L 753.7011108398438 771.5995483398438 L 753.6194458007812 770.6923828125 C 754.5784912109375 770.4878540039062 755.3167724609375 770.3211669921875 755.8342895507812 770.1923217773438 L 757.770263671875 769.5658569335938 L 757.9052734375 770.4803466796875 C 757.4927978515625 770.6448974609375 757.2291259765625 770.8135986328125 757.1141357421875 770.9865112304688 C 756.99755859375 771.1529541015625 756.9674682617188 771.4043579101562 757.0237426757812 771.74072265625 L 758.1542358398438 776.8592529296875 C 758.415283203125 777.9072265625 758.8592529296875 778.6554565429688 759.4862060546875 779.1038818359375 C 760.1212158203125 779.5571899414062 760.8980712890625 779.66943359375 761.816650390625 779.440673828125 ZM 765.3164672851562 767.5708618164062 L 767.5440673828125 766.8525390625 L 769.6557006835938 765.9522094726562 L 769.8687133789062 766.8731689453125 C 769.4158935546875 767.0934448242188 769.1325073242188 767.2938232421875 769.0186157226562 767.474365234375 C 768.902587890625 767.6486206054688 768.8865966796875 767.9080810546875 768.970703125 768.2528686523438 C 769.7903442382812 771.1297607421875 770.5272827148438 773.5131225585938 771.1815795898438 775.403076171875 C 771.3408203125 775.8629760742188 771.4991455078125 776.1573486328125 771.6566772460938 776.2862548828125 C 771.81201171875 776.4088134765625 772.0408325195312 776.4177856445312 772.34326171875 776.3131103515625 L 773.2086181640625 775.939453125 L 773.27587890625 776.0114135742188 L 773.4256591796875 776.93310546875 C 772.3626708984375 777.265869140625 771.623291015625 777.504150390625 771.20751953125 777.6481323242188 C 770.4452514648438 777.9120483398438 769.6806640625 778.2507934570312 768.9137573242188 778.6644897460938 L 768.7196655273438 777.7369384765625 C 769.2328491210938 777.4464111328125 769.5501098632812 777.1707763671875 769.6715087890625 776.9100341796875 C 769.7865600585938 776.6514892578125 769.76123046875 776.2828369140625 769.595458984375 775.8040161132812 L 767.2421264648438 768.9148559570312 C 767.1177978515625 768.5557250976562 766.9908447265625 768.3316040039062 766.8612060546875 768.242431640625 C 766.7293701171875 768.14697265625 766.5343017578125 768.1439819335938 766.2760620117188 768.2333984375 L 765.5676879882812 768.5103759765625 L 765.4971313476562 768.428955078125 L 765.3164672851562 767.5708618164062 ZM 778.7555541992188 774.954833984375 C 778.2672119140625 775.1692504882812 777.7679443359375 775.3338623046875 777.2576904296875 775.4486694335938 C 776.7536010742188 775.5608520507812 776.241943359375 775.6143798828125 775.7227783203125 775.609375 L 775.5285034179688 775.46533203125 C 775.2951049804688 774.519287109375 774.9573364257812 773.542724609375 774.5150756835938 772.5355224609375 L 775.43115234375 772.0349731445312 C 775.910888671875 773.1276245117188 776.3632202148438 773.7845458984375 776.7879638671875 774.0057983398438 C 777.2188720703125 774.2243041992188 777.81884765625 774.1647338867188 778.5880126953125 773.8270263671875 C 779.3571166992188 773.4893188476562 779.8818359375 773.0841674804688 780.1621704101562 772.611572265625 C 780.4486083984375 772.1362915039062 780.4832153320312 771.6514892578125 780.26611328125 771.1570434570312 C 780.0651245117188 770.69921875 779.637939453125 770.40625 778.984619140625 770.278076171875 C 778.5997314453125 770.214111328125 778.312255859375 770.1728515625 778.1221313476562 770.1544189453125 C 777.6510620117188 770.142822265625 777.1698608398438 770.124755859375 776.6785278320312 770.1002197265625 C 776.1810913085938 770.078369140625 775.7676391601562 770.0487670898438 775.4381713867188 770.0114135742188 C 775.0999145507812 769.9706420898438 774.7272338867188 769.9013061523438 774.3201904296875 769.8033447265625 C 773.5250854492188 769.5845336914062 772.9734497070312 769.1241455078125 772.6652221679688 768.4221801757812 C 772.27392578125 767.5309448242188 772.3402709960938 766.620849609375 772.8642578125 765.6917724609375 C 773.3856201171875 764.756591796875 774.2353515625 764.0303344726562 775.4134521484375 763.5130615234375 C 776.3900756835938 763.0841674804688 777.3494262695312 762.8231201171875 778.2914428710938 762.7298583984375 L 778.4381713867188 762.8402099609375 C 778.6180419921875 763.780517578125 778.8915405273438 764.7598876953125 779.2586059570312 765.7782592773438 L 778.470703125 766.2224731445312 L 778.3154907226562 766.1923217773438 C 778.248779296875 765.9740600585938 778.1229858398438 765.6543579101562 777.9380493164062 765.233154296875 C 777.7531127929688 764.81201171875 777.4702758789062 764.5575561523438 777.0895385742188 764.4699096679688 C 776.7061767578125 764.3760986328125 776.1879272460938 764.47265625 775.5347900390625 764.7593994140625 C 774.8755493164062 765.0488891601562 774.4139404296875 765.4154052734375 774.1499633789062 765.8589477539062 C 773.8860473632812 766.302490234375 773.84521484375 766.7318115234375 774.0274658203125 767.1469116210938 C 774.21240234375 767.5680541992188 774.5614624023438 767.8407592773438 775.07470703125 767.96484375 C 775.587890625 768.0889892578125 776.2096557617188 768.161865234375 776.93994140625 768.1834106445312 C 777.6641235351562 768.2076416015625 778.1409301757812 768.2239990234375 778.370361328125 768.232421875 C 778.5997924804688 768.2409057617188 778.9353637695312 768.2755737304688 779.3771362304688 768.3364868164062 C 779.821533203125 768.4034423828125 780.1602783203125 768.4949951171875 780.393310546875 768.611083984375 C 781.0513916015625 768.8827514648438 781.4970092773438 769.2841186523438 781.7301635742188 769.815185546875 C 782.1483154296875 770.7674560546875 782.0814819335938 771.7178344726562 781.5296020507812 772.6664428710938 C 780.9804077148438 773.62109375 780.0557250976562 774.3839111328125 778.7555541992188 774.954833984375 ZM 796.6795654296875 764.5026245117188 C 795.9898681640625 765.4816284179688 794.9576416015625 766.3932495117188 793.5828247070312 767.2374877929688 C 792.2023315429688 768.085205078125 790.8233032226562 768.3492431640625 789.4456787109375 768.0296020507812 C 788.0679931640625 767.7098999023438 786.9134521484375 766.7916259765625 785.9819946289062 765.2747802734375 C 785.0540161132812 763.763671875 784.8074340820312 762.1900634765625 785.2422485351562 760.553955078125 C 785.6735229492188 758.9121704101562 786.7100830078125 757.5872192382812 788.3518676757812 756.5789794921875 C 789.1813354492188 756.0696411132812 790.206787109375 755.6119995117188 791.4283447265625 755.2061157226562 L 791.5783081054688 755.2783203125 C 791.8516845703125 756.1821899414062 792.2578735351562 757.1493530273438 792.7966918945312 758.1796875 L 791.8618774414062 758.8358764648438 C 791.72412109375 758.5606079101562 791.5802612304688 758.3008422851562 791.4302368164062 758.0565795898438 C 790.8685302734375 757.1419067382812 789.8605346679688 757.1311645507812 788.4061889648438 758.0242309570312 C 787.3893432617188 758.648681640625 786.7941284179688 759.4757690429688 786.6206665039062 760.5054931640625 C 786.4471435546875 761.53515625 786.7406616210938 762.6692504882812 787.501220703125 763.90771484375 C 788.2582397460938 765.1404418945312 789.1818237304688 765.9501953125 790.2720336914062 766.3368530273438 C 791.3622436523438 766.7235107421875 792.4271850585938 766.59765625 793.466796875 765.959228515625 C 794.8074951171875 765.1359252929688 795.18017578125 763.8508911132812 794.5847778320312 762.104248046875 L 795.5176391601562 761.42578125 C 795.8970336914062 762.5149536132812 796.2909545898438 763.462158203125 796.699462890625 764.2674560546875 L 796.6795654296875 764.5026245117188 ZM 796.986083984375 757.7930908203125 C 796.986083984375 757.7930908203125 797.2055053710938 758.0743408203125 797.644287109375 758.63671875 C 798.0830688476562 759.1991577148438 798.8666381835938 759.6236572265625 799.9949340820312 759.9102172851562 C 801.1221313476562 760.2061157226562 802.1351318359375 760.0034790039062 803.033935546875 759.30224609375 C 803.927490234375 758.6051025390625 804.39892578125 757.72998046875 804.4481811523438 756.6768188476562 C 804.493408203125 755.6184692382812 804.0772094726562 754.52685546875 803.1995849609375 753.4019775390625 C 802.322021484375 752.2771606445312 801.3158569335938 751.5781860351562 800.18115234375 751.3051147460938 C 799.0411376953125 751.0360717773438 798.021728515625 751.252197265625 797.1229248046875 751.9534301757812 C 796.2293701171875 752.6505737304688 795.7637939453125 753.5169677734375 795.7261352539062 754.5525512695312 C 795.6885375976562 755.5880737304688 796.1085205078125 756.6682739257812 796.986083984375 757.7930908203125 M 804.4144897460938 751.756591796875 C 804.4144897460938 751.756591796875 804.6810302734375 752.0982055664062 805.2141723632812 752.7815551757812 C 805.7472534179688 753.46484375 805.9151000976562 754.64453125 805.7176513671875 756.3206176757812 C 805.5149536132812 758.000732421875 804.7512817382812 759.3575439453125 803.4267578125 760.3909301757812 C 802.107421875 761.4202880859375 800.7503662109375 761.8321533203125 799.3555297851562 761.626708984375 C 797.9700317382812 761.42236328125 796.7442016601562 760.6369018554688 795.677978515625 759.2703247070312 C 794.6158447265625 757.908935546875 794.1803588867188 756.39697265625 794.3713989257812 754.734375 C 794.5624389648438 753.07177734375 795.3228759765625 751.7216796875 796.6526489257812 750.6842041015625 C 797.9824829101562 749.6466674804688 799.3453979492188 749.2259521484375 800.7413940429688 749.422119140625 C 802.1279907226562 749.6170654296875 803.3523559570312 750.3952026367188 804.4144897460938 751.756591796875 ZM 808.2725830078125 741.65380859375 L 807.79150390625 742.1343994140625 L 807.6854248046875 742.0989990234375 L 807.1696166992188 741.3562622070312 C 807.7969360351562 740.7955932617188 808.2732543945312 740.3527221679688 808.5986938476562 740.0276489257812 L 809.8722534179688 738.5574951171875 L 810.472900390625 739.2861328125 C 809.9682006835938 739.941162109375 809.9419555664062 740.5091552734375 810.3942260742188 740.990234375 L 817.157470703125 748.1426391601562 L 816.7045288085938 748.9485473632812 C 812.62255859375 748.192138671875 808.8893432617188 747.5773315429688 805.5048828125 747.1041259765625 L 805.4270629882812 747.181884765625 L 810.2752075195312 752.1342163085938 C 810.4825439453125 752.3417358398438 810.654541015625 752.4525756835938 810.791259765625 752.466796875 C 810.9326782226562 752.476318359375 811.078857421875 752.4056396484375 811.229736328125 752.2548828125 L 811.8594360351562 751.58349609375 L 811.9584350585938 751.5835571289062 L 812.4741821289062 752.3687133789062 C 811.8375244140625 752.9387817382812 811.3305053710938 753.4122314453125 810.9531860351562 753.7891845703125 L 809.7078857421875 755.2310180664062 L 809.1213989257812 754.4882202148438 C 809.5884399414062 753.8898315429688 809.5957641601562 753.3547973632812 809.1434936523438 752.8831176757812 L 803.9774169921875 747.35791015625 C 803.7088623046875 747.0890502929688 803.4449462890625 746.98046875 803.1856689453125 747.0322265625 C 802.9310302734375 747.088623046875 802.5538330078125 747.3099975585938 802.0538940429688 747.6962890625 L 801.9124755859375 747.6820678710938 L 801.4744262695312 747.0171508789062 C 802.0451049804688 746.5319213867188 802.4766235351562 746.1432495117188 802.76904296875 745.8511352539062 L 803.7030029296875 744.8192138671875 C 806.9317626953125 745.4384765625 810.316162109375 745.9965209960938 813.8561401367188 746.4933471679688 L 813.9410400390625 746.4085693359375 L 809.2412719726562 741.7462158203125 C 808.8878784179688 741.3925170898438 808.5650024414062 741.3616943359375 808.2725830078125 741.65380859375 ZM 819.272705078125 740.5304565429688 L 813.3466186523438 735.8202514648438 C 812.6146240234375 736.805419921875 812.2169799804688 737.4771728515625 812.153564453125 737.8355712890625 C 812.0682983398438 738.2106323242188 812.4205932617188 738.82275390625 813.2103881835938 739.6719360351562 L 812.5916137695312 740.5469360351562 C 811.7789306640625 739.7051391601562 810.9685668945312 738.946044921875 810.1605834960938 738.269775390625 L 810.153564453125 738.021484375 L 811.310302734375 736.8715209960938 L 814.9440307617188 732.2996826171875 L 815.8344116210938 730.8741455078125 L 816.0716552734375 730.832763671875 C 816.9691772460938 731.5036010742188 817.873779296875 732.1118774414062 818.7855224609375 732.65771484375 L 818.1729125976562 733.5248413085938 C 817.8172607421875 733.3187866210938 817.5309448242188 733.1593627929688 817.3140258789062 733.0465087890625 C 817.102294921875 732.9378662109375 816.8814086914062 732.8729858398438 816.6512451171875 732.8518676757812 C 816.4169311523438 732.8359375 816.2503051757812 732.8312377929688 816.1514282226562 732.8378295898438 C 816.0525512695312 732.8443603515625 815.8857421875 732.9417114257812 815.6510009765625 733.1298828125 C 815.4049682617188 733.3430786132812 815.024658203125 733.7518920898438 814.5101318359375 734.3563232421875 C 815.8313598632812 735.6619262695312 817.9480590820312 737.4720458984375 820.8602294921875 739.7867431640625 C 821.2098999023438 740.0646362304688 821.5090942382812 740.1917724609375 821.7578735351562 740.1680908203125 C 822.00244140625 740.1495971679688 822.2429809570312 739.9916381835938 822.4794311523438 739.6941528320312 L 823.0765991210938 738.8786010742188 L 823.1749267578125 738.8673706054688 L 823.826904296875 739.5899658203125 C 822.9607543945312 740.6046752929688 822.3430786132812 741.3442993164062 821.973876953125 741.8087768554688 L 820.3518676757812 743.994140625 L 819.7390747070312 743.3026733398438 C 820.2261352539062 742.5827026367188 820.4411010742188 742.0765380859375 820.3839721679688 741.7841796875 C 820.3267822265625 741.4917602539062 819.9563598632812 741.0738525390625 819.272705078125 740.5304565429688 ZM 819.3778076171875 725.746337890625 C 820.0377197265625 724.7044067382812 820.7736206054688 724.0222778320312 821.5853881835938 723.699951171875 C 822.3936157226562 723.3832397460938 823.1328125 723.4371337890625 823.8030395507812 723.8616333007812 C 825.1265869140625 724.6998901367188 825.6503295898438 726.0969848632812 825.3743286132812 728.0527954101562 L 828.8930053710938 727.9732055664062 C 829.5474243164062 727.9615478515625 830.0613403320312 727.872802734375 830.4347534179688 727.7068481445312 C 830.8102416992188 727.550048828125 831.1246337890625 727.271728515625 831.3778686523438 726.8718872070312 L 831.5189819335938 726.8546752929688 L 832.0599365234375 727.3275146484375 L 831.270263671875 728.9107055664062 C 830.885009765625 729.5189819335938 830.0580444335938 729.7843017578125 828.789306640625 729.7067260742188 L 824.9234008789062 729.5309448242188 L 824.1261596679688 730.7897338867188 L 826.174560546875 732.1344604492188 C 826.7039794921875 732.4697265625 827.0755004882812 732.6182250976562 827.2891235351562 732.5799560546875 C 827.4992065429688 732.5473022460938 827.7739868164062 732.2754516601562 828.1134033203125 731.7644653320312 L 828.1939697265625 731.7681274414062 L 828.8326416015625 732.3856811523438 C 828.804443359375 732.3678588867188 828.4158325195312 732.9503173828125 827.666748046875 734.1329956054688 L 826.5005493164062 736.1051025390625 L 825.7920532226562 735.4669799804688 C 826.0297241210938 734.9546508789062 826.1196899414062 734.5696411132812 826.0618896484375 734.3120727539062 C 826.006103515625 734.063720703125 825.7642211914062 733.803955078125 825.336181640625 733.5328979492188 L 819.1851196289062 729.6015014648438 C 818.8753662109375 729.4053344726562 818.6420288085938 729.312744140625 818.4850463867188 729.3238525390625 C 818.322509765625 729.3313598632812 818.171630859375 729.4449462890625 818.0325317382812 729.66455078125 L 817.7153930664062 730.2213134765625 L 817.593505859375 730.2269287109375 L 816.9334106445312 729.6431274414062 C 817.4752197265625 728.8499755859375 817.872802734375 728.25341796875 818.1260375976562 727.8535766601562 L 819.3778076171875 725.746337890625 M 824.28955078125 728.6441650390625 C 824.5386962890625 727.2789306640625 824.1817626953125 726.2913208007812 823.2186889648438 725.6813354492188 C 821.9683227539062 724.8894653320312 820.7581787109375 725.4171752929688 819.588134765625 727.2644653320312 C 819.4739990234375 727.4447021484375 819.5324096679688 727.60791015625 819.7633056640625 727.7542114257812 C 821.2704467773438 728.8507690429688 822.3985595703125 729.6362915039062 823.1475830078125 730.1107177734375 L 824.28955078125 728.6441650390625 ZM 837.6038818359375 716.0864868164062 C 837.1690063476562 716.9054565429688 836.8511352539062 717.5218505859375 836.650146484375 717.9356079101562 C 836.3356323242188 718.583251953125 835.9641723632812 719.4700927734375 835.535888671875 720.5961303710938 L 835.4063720703125 720.611083984375 L 834.6903686523438 720.1854858398438 C 834.927978515625 719.5894165039062 835.0558471679688 719.1734619140625 835.0740356445312 718.937744140625 C 835.086181640625 718.6990356445312 834.9902954101562 718.5302124023438 834.7864379882812 718.43115234375 C 834.5765380859375 718.3292236328125 834.3253173828125 718.2665405273438 834.0328979492188 718.2431030273438 L 832.2094116210938 717.9689331054688 C 832.0574951171875 718.2360229492188 831.8285522460938 718.6844482421875 831.5227661132812 719.3140869140625 C 831.2169799804688 719.9437255859375 830.915283203125 720.6717529296875 830.61767578125 721.4981079101562 C 831.6619873046875 722.5982055664062 832.2471313476562 723.1788940429688 832.373046875 723.2400512695312 C 832.7808227539062 723.4380493164062 833.1420288085938 723.2132568359375 833.45654296875 722.5656127929688 L 833.8847045898438 721.68408203125 L 833.9962158203125 721.6604614257812 L 834.7176513671875 722.1664428710938 C 834.246826171875 722.9679565429688 833.8308715820312 723.7405395507812 833.4697265625 724.484130859375 L 832.5928955078125 726.4039916992188 L 831.8085327148438 725.8673706054688 C 831.9150390625 725.5411376953125 831.9236450195312 725.2488403320312 831.8341674804688 724.990478515625 C 831.753662109375 724.7290649414062 831.5501708984375 724.4078979492188 831.2237548828125 724.0269775390625 L 824.615478515625 716.8265380859375 L 825.0577392578125 715.229248046875 L 825.1546020507812 715.0984497070312 C 829.080810546875 715.8194580078125 832.3366088867188 716.3260498046875 834.9220581054688 716.6182861328125 C 835.3908081054688 716.6754760742188 835.755615234375 716.634033203125 836.016357421875 716.4938354492188 C 836.2742309570312 716.3596801757812 836.5377197265625 716.0689086914062 836.806884765625 715.62158203125 L 836.90966796875 715.6159057617188 L 837.6038818359375 716.0864868164062 M 830.4983520507812 719.2946166992188 C 830.7313842773438 718.8148193359375 830.944580078125 718.299560546875 831.1380004882812 717.7487182617188 L 826.532470703125 717.0682983398438 L 826.4625854492188 717.2122192382812 L 829.8168334960938 720.6978149414062 L 830.4983520507812 719.2946166992188 ZM 832.436767578125 698.84716796875 L 832.2376098632812 699.4973754882812 L 832.1273193359375 699.515869140625 L 831.3232421875 699.1022338867188 C 831.6138916015625 698.312744140625 831.8265991210938 697.6980590820312 831.9613037109375 697.2582397460938 L 832.3956298828125 695.3623046875 L 833.26806640625 695.7236938476562 C 833.1298828125 696.5389404296875 833.3734130859375 697.0527954101562 833.9985961914062 697.2652587890625 L 843.3280029296875 700.4054565429688 L 843.3063354492188 701.3296508789062 C 839.3470458984375 702.5780639648438 835.76220703125 703.787841796875 832.5517578125 704.9588623046875 L 832.51953125 705.0640258789062 L 839.1251220703125 707.1607055664062 C 839.4055786132812 707.2466430664062 839.6094970703125 707.2637939453125 839.7368774414062 707.212158203125 C 839.8662109375 707.1541748046875 839.9620971679688 707.0231323242188 840.0245971679688 706.8191528320312 L 840.265380859375 705.9307250976562 L 840.352783203125 705.8843383789062 L 841.1768188476562 706.33544921875 C 840.8822631835938 707.1376953125 840.6568603515625 707.7937622070312 840.5006713867188 708.3037109375 L 840.0780029296875 710.161376953125 L 839.2114868164062 709.7808837890625 C 839.3428955078125 709.0332641601562 839.0982055664062 708.5574340820312 838.4774169921875 708.3533325195312 L 831.3221435546875 705.9000244140625 C 830.9588623046875 705.7886962890625 830.6748046875 705.8167724609375 830.4701538085938 705.984130859375 C 830.2718505859375 706.1535034179688 830.042724609375 706.5260620117188 829.7826538085938 707.101806640625 L 829.651123046875 707.1556396484375 L 828.9522094726562 706.7742309570312 C 829.228271484375 706.077880859375 829.4268188476562 705.5321044921875 829.5478515625 705.1368408203125 L 829.8880615234375 703.787353515625 C 833.0296630859375 702.8182983398438 836.2799072265625 701.7222290039062 839.6387939453125 700.4990234375 L 839.6739501953125 700.38427734375 L 833.33544921875 698.4739990234375 C 832.857421875 698.3275756835938 832.5578002929688 698.4519653320312 832.436767578125 698.84716796875 ZM 838.483154296875 693.9066162109375 C 838.483154296875 693.9066162109375 838.8343505859375 693.9688720703125 839.5367431640625 694.09326171875 C 840.2391357421875 694.2176513671875 841.1055297851562 694.0089111328125 842.1358642578125 693.4669799804688 C 843.1715698242188 692.9327392578125 843.788818359375 692.1043701171875 843.9876708984375 690.9818725585938 C 844.185302734375 689.8659057617188 843.9501953125 688.9000854492188 843.2821655273438 688.0844116210938 C 842.607666015625 687.267578125 841.5679931640625 686.7347412109375 840.1632080078125 686.4859008789062 C 838.7583618164062 686.237060546875 837.54296875 686.3908081054688 836.5169067382812 686.947021484375 C 835.4896240234375 687.5098266601562 834.8765869140625 688.3524780273438 834.6777954101562 689.4749755859375 C 834.4801025390625 690.5909423828125 834.7137451171875 691.5463256835938 835.3786010742188 692.3411865234375 C 836.0435180664062 693.135986328125 837.078369140625 693.6577758789062 838.483154296875 693.9066162109375 M 839.9652099609375 684.4501953125 C 839.9652099609375 684.4501953125 840.3919067382812 684.5257568359375 841.2453002929688 684.6769409179688 C 842.0986938476562 684.8280639648438 843.0126953125 685.592529296875 843.9873046875 686.9703369140625 C 844.9608154296875 688.3546752929688 845.301025390625 689.8739624023438 845.0079956054688 691.5281982421875 C 844.7161254882812 693.1759033203125 843.983154296875 694.3899536132812 842.8090209960938 695.1704711914062 C 841.6426391601562 695.9456176757812 840.2060546875 696.1820068359375 838.499267578125 695.8796997070312 C 836.799072265625 695.5785522460938 835.4638061523438 694.7462158203125 834.493408203125 693.3827514648438 C 833.5230102539062 692.0192260742188 833.1848754882812 690.507080078125 833.4790649414062 688.8463134765625 C 833.7732543945312 687.1854858398438 834.5046997070312 685.9609375 835.6734008789062 685.1727294921875 C 836.8344116210938 684.389892578125 838.2650146484375 684.1490478515625 839.9652099609375 684.4501953125 ZM 846.4315185546875 680.3844604492188 C 846.395263671875 680.9165649414062 846.3097534179688 681.4352416992188 846.1751098632812 681.9406127929688 C 846.0408325195312 682.4392700195312 845.8512573242188 682.91748046875 845.606201171875 683.375244140625 L 845.3885498046875 683.4806518554688 C 844.4420776367188 683.2490844726562 843.420166015625 683.095947265625 842.3226928710938 683.0211181640625 L 842.3036499023438 681.9774169921875 C 843.4942016601562 682.0585327148438 844.285888671875 681.962158203125 844.6787719726562 681.688232421875 C 845.0720825195312 681.40771484375 845.29736328125 680.848388671875 845.3544311523438 680.0103149414062 C 845.4115600585938 679.1722412109375 845.2957153320312 678.51953125 845.0068359375 678.0521240234375 C 844.7183837890625 677.578125 844.3048095703125 677.3226928710938 843.7660522460938 677.2860107421875 C 843.2672119140625 677.2520141601562 842.8096313476562 677.4947509765625 842.3933715820312 678.0143432617188 C 842.1582641601562 678.3257446289062 841.988525390625 678.5614013671875 841.8840942382812 678.7213134765625 C 841.655517578125 679.1334228515625 841.4165649414062 679.5514526367188 841.1671142578125 679.9754638671875 C 840.9172973632812 680.4061279296875 840.699462890625 680.7587890625 840.513671875 681.0335083007812 C 840.32080078125 681.3143310546875 840.086669921875 681.6124267578125 839.8112182617188 681.9277954101562 C 839.2489013671875 682.5309448242188 838.5853271484375 682.8064575195312 837.8204345703125 682.7543334960938 C 836.8493041992188 682.6881103515625 836.0735473632812 682.2075805664062 835.4930419921875 681.3126831054688 C 834.9059448242188 680.4173583984375 834.6561279296875 679.3278198242188 834.7435913085938 678.0441284179688 C 834.816162109375 676.97998046875 835.0293579101562 676.0088500976562 835.3832397460938 675.1309204101562 L 835.5489501953125 675.052001953125 C 836.4656372070312 675.3283081054688 837.460205078125 675.539794921875 838.53271484375 675.6864013671875 L 838.5613403320312 676.5903930664062 L 838.4627075195312 676.7139892578125 C 838.2383422851562 676.6719970703125 837.896728515625 676.6353149414062 837.4378051757812 676.6040649414062 C 836.9788818359375 676.57275390625 836.622314453125 676.7055053710938 836.3682250976562 677.0022583007812 C 836.1074829101562 677.2985229492188 835.9528198242188 677.802490234375 835.9043579101562 678.51416015625 C 835.8553466796875 679.2325439453125 835.9662475585938 679.8114013671875 836.2369995117188 680.2508544921875 C 836.5077514648438 680.6902465820312 836.8692626953125 680.9254150390625 837.321533203125 680.9562377929688 C 837.7804565429688 680.9874877929688 838.183837890625 680.8045043945312 838.5316772460938 680.4072265625 C 838.8795166015625 680.0099487304688 839.232177734375 679.4927368164062 839.5896606445312 678.8555908203125 C 839.9466552734375 678.22509765625 840.18212890625 677.8101196289062 840.2959594726562 677.6107788085938 C 840.4097900390625 677.411376953125 840.5960083007812 677.1300659179688 840.8546142578125 676.7667846679688 C 841.1199340820312 676.4039916992188 841.3579711914062 676.146240234375 841.56884765625 675.9935913085938 C 842.1145629882812 675.5363159179688 842.6767578125 675.327392578125 843.25537109375 675.3668212890625 C 844.29296875 675.4375610351562 845.104248046875 675.9371948242188 845.6890869140625 676.8657836914062 C 846.2805786132812 677.7948608398438 846.528076171875 678.9677124023438 846.4315185546875 680.3844604492188 Z" transform="matrix(2.1843276023864746, 0, 0, 2.1843276023864746, -1221.763916015625, -1174.5665283203125)" style="fill: rgb(51, 51, 51); white-space: pre; color: rgb(51, 51, 51);"/></svg>